<?xml version="1.0" standalone="no"?>
<!DOCTYPE svg PUBLIC "-//W3C//DTD SVG 1.1//EN" "http://www.w3.org/Graphics/SVG/1.1/DTD/svg11.dtd" >
<svg>
<metadata>
Created by FontForge 20090622 at Sun Aug 28 08:50:50 2016
 By deploy user
</metadata>
<defs>
<font id="NanumSquareOTFR00" horiz-adv-x="940" vert-adv-y="1000" >
  <font-face 
    font-family="NanumSquareOTFR00"
    font-weight="400"
    font-stretch="normal"
    units-per-em="1000"
    panose-1="2 0 5 3 0 0 0 0 0 0"
    ascent="800"
    descent="-200"
    bbox="-70 -249 1161 832"
    underline-thickness="50"
    underline-position="-100"
  />
<missing-glyph horiz-adv-x="910" 
d="M855 757v-900h-800v900h800zM790 -107l-335 385l-335 -385h670zM95 692v-768l334 384zM121 721l333 -384l334 384h-667zM815 -77v770l-334 -386z" />
    <glyph glyph-name=".notdef" horiz-adv-x="910" 
d="M855 757v-900h-800v900h800zM790 -107l-335 385l-335 -385h670zM95 692v-768l334 384zM121 721l333 -384l334 384h-667zM815 -77v770l-334 -386z" />
    <glyph glyph-name=".null" horiz-adv-x="0" vert-adv-y="0" 
 />
    <glyph glyph-name="nonmarkingreturn" horiz-adv-x="333" 
 />
    <glyph glyph-name="Korea1.1" horiz-adv-x="250" 
 />
    <glyph glyph-name="Korea1.2" horiz-adv-x="280" 
d="M92 -54v98h96v-98h-96zM169 148h-58l-12 566h82z" />
    <glyph glyph-name="Korea1.3" horiz-adv-x="373" 
d="M144 488h-58l-10 242h78zM287 488h-58l-10 242h78z" />
    <glyph glyph-name="Korea1.4" horiz-adv-x="585" 
d="M411 255h110v-61h-118l-31 -220h-57l31 220h-142l-30 -220h-58l31 220h-109v61h117l23 164h-109v61h118l30 215h57l-30 -215h141l30 215h58l-31 -215h110v-61h-118zM354 255l23 164h-142l-23 -164h142z" />
    <glyph glyph-name="Korea1.5" horiz-adv-x="604" 
d="M277 -93v75q-128 6 -222 79l36 55q89 -66 186 -73v270q-113 26 -161 68.5t-48 109.5v22q0 76 56.5 122t152.5 52v64h55v-64q108 -7 187 -61l-34 -50q-61 42 -153 49v-256q120 -30 168 -72.5t48 -113.5v-22q0 -73 -57.5 -122t-158.5 -56v-76h-55zM479 181q0 43 -31.5 70.5
t-115.5 49.5v-257q69 7 108 39t39 78v20zM137 494q0 -41 30.5 -66t109.5 -46v243q-63 -5 -101.5 -35.5t-38.5 -78.5v-17z" />
    <glyph glyph-name="Korea1.6" horiz-adv-x="869" 
d="M251 -25h-64l431 720h63zM644 343q73 0 114 -43.5t41 -122.5v-45q0 -79 -41 -122.5t-114 -43.5t-114 43.5t-41 122.5v45q0 79 41 122.5t114 43.5zM644 17q97 0 97 117v41q0 117 -97 117t-97 -117v-41q0 -117 97 -117zM225 703q73 0 114 -43.5t41 -122.5v-45
q0 -79 -41 -122.5t-114 -43.5t-114 43.5t-41 122.5v45q0 79 41 122.5t114 43.5zM225 377q97 0 97 117v41q0 117 -97 117t-97 -117v-41q0 -117 97 -117z" />
    <glyph glyph-name="Korea1.7" horiz-adv-x="664" 
d="M542 347h65q0 -145 -70 -246l108 -127h-80l-68 80q-87 -91 -224 -91h-6q-95 0 -163 48t-68 129v24q0 67 41 113.5t146 99.5l-19 23l-37.5 45.5t-26.5 46t-15 59.5v18q0 53 46.5 95t126.5 42q76 0 124.5 -42.5t48.5 -94.5v-19q0 -51 -34.5 -96t-119.5 -94l178 -210
q47 80 47 197zM271 23q115 0 187 78l-195 229q-89 -47 -124.5 -82.5t-35.5 -87.5v-17q0 -49 48.5 -84.5t119.5 -35.5zM190 554q0 -8 1.5 -16t5.5 -17l7 -16t10.5 -18l11 -16t13 -17.5t12.5 -16l14.5 -17t12.5 -15.5q75 40 101.5 75.5t26.5 73.5v11q0 35 -31.5 59t-76.5 24
t-76.5 -24t-31.5 -59v-11z" />
    <glyph glyph-name="Korea1.8" horiz-adv-x="230" 
d="M144 488h-58l-10 242h78z" />
    <glyph glyph-name="Korea1.9" horiz-adv-x="313" 
d="M151 324v-50q0 -256 137 -444h-64q-147 175 -147 449v40q0 272 147 447h64q-137 -185 -137 -442z" />
    <glyph glyph-name="Korea1.10" horiz-adv-x="313" 
d="M162 274v50q0 257 -137 442h64q147 -175 147 -447v-40q0 -274 -147 -449h-64q137 188 137 444z" />
    <glyph glyph-name="Korea1.11" horiz-adv-x="459" 
d="M204 491l-128 -83l-31 57l142 69l-142 68l31 57l127 -83l-6 153h66l-7 -153l128 83l30 -57l-142 -68l142 -69l-30 -57l-128 83l7 -152h-66z" />
    <glyph glyph-name="Korea1.12" horiz-adv-x="600" 
d="M267 568h66v-217h213v-64h-213v-231h-66v231h-213v64h213v217z" />
    <glyph glyph-name="Korea1.13" horiz-adv-x="245" 
d="M47 -175l42 225h88l-72 -225h-58z" />
    <glyph glyph-name="Korea1.14" horiz-adv-x="412" 
d="M50 302v64h312v-64h-312z" />
    <glyph glyph-name="Korea1.15" horiz-adv-x="245" 
d="M72 -55v100h101v-100h-101z" />
    <glyph glyph-name="Korea1.16" horiz-adv-x="389" 
d="M311 759h68l-302 -884h-67z" />
    <glyph glyph-name="Korea1.17" horiz-adv-x="600" 
d="M545 391v-112q0 -157 -59.5 -236.5t-186.5 -79.5q-244 0 -244 316v112q0 315 244 315q246 0 246 -315zM473 278v114q0 131 -43 191t-131 60q-172 0 -172 -251v-114q0 -131 43.5 -191.5t128.5 -60.5q88 0 131 60t43 192z" />
    <glyph glyph-name="Korea1.18" horiz-adv-x="600" 
d="M381 -26h-70v633l-174 -106l-32 56l223 138h53v-721z" />
    <glyph glyph-name="Korea1.19" horiz-adv-x="600" 
d="M77 34l269 315q56 65 74 101t18 67v8q0 54 -36 85.5t-101 31.5q-106 0 -167 -109l-56 35q76 138 221 138q96 0 153 -49.5t57 -130.5v-10q0 -28 -8.5 -54.5t-30 -57.5t-35 -48t-46.5 -55l-224 -263h370v-64h-458v60z" />
    <glyph glyph-name="Korea1.20" horiz-adv-x="600" 
d="M139 558l-55 36q70 112 208 112q98 0 155.5 -49.5t57.5 -130.5v-10q0 -50 -29 -94.5t-95 -67.5q73 -12 112.5 -57.5t39.5 -110.5v-15q0 -87 -59.5 -147.5t-182.5 -60.5q-130 0 -231 80l35 56q99 -72 196 -72q87 0 130 42.5t43 100.5v13q0 73 -51 105t-116 32h-81v60h84
q63 0 98.5 42.5t35.5 94.5v8q0 54 -38 85.5t-103 31.5q-101 0 -154 -84z" />
    <glyph glyph-name="Korea1.21" horiz-adv-x="600" 
d="M400 425h70v-227h106v-64h-106v-160h-70v160h-361v64l350 497h80l-349 -497h280v227z" />
    <glyph glyph-name="Korea1.22" horiz-adv-x="600" 
d="M475 178v13q0 166 -163 166q-83 0 -142 -57h-66l23 395h371v-64h-309l-11 -262q24 23 65.5 37t85.5 14q103 0 159 -63t56 -163v-15q0 -41 -13.5 -77.5t-40.5 -68.5t-76 -51t-114 -19q-130 0 -234 80l36 57q95 -73 198 -73q88 0 131.5 46.5t43.5 104.5z" />
    <glyph glyph-name="Korea1.23" horiz-adv-x="600" 
d="M516 657l-33 -57q-74 43 -153 43q-97 0 -141.5 -76.5t-53.5 -227.5q20 39 66.5 70t115.5 31q96 0 162.5 -60.5t66.5 -162.5v-24q0 -105 -66.5 -167.5t-169.5 -62.5q-108 0 -176 74.5t-68 218.5v24q0 224 68 325t197 101q97 0 185 -49zM142 220v-13q0 -81 46 -131t120 -50
q75 0 122 45.5t47 124.5v15q0 78 -49 123t-119 45q-65 0 -116 -46t-51 -113z" />
    <glyph glyph-name="Korea1.24" horiz-adv-x="600" 
d="M545 641l-292 -667h-79l293 657h-405v64h483v-54z" />
    <glyph glyph-name="Korea1.25" horiz-adv-x="600" 
d="M159 523v-12q0 -60 39 -100.5t102 -40.5t102 40.5t39 100.5v12q0 55 -38.5 88t-102.5 33q-65 0 -103 -33t-38 -88zM139 171v-12q0 -57 44 -95t117 -38q74 0 117.5 38t43.5 95v12q0 64 -45 103t-116 39t-116 -39t-45 -103zM68 157v17q0 59 36.5 105t95.5 64
q-109 51 -109 167v16q0 77 59 128.5t150 51.5t150 -51.5t59 -128.5v-16q0 -56 -28.5 -99.5t-81.5 -67.5q59 -17 96 -63.5t37 -105.5v-17q0 -86 -64 -140t-168 -54t-168 54t-64 140z" />
    <glyph glyph-name="Korea1.26" horiz-adv-x="600" 
d="M86 12l29 59q76 -44 155 -44q105 0 147.5 75t47.5 226q-19 -39 -66.5 -71.5t-115.5 -32.5q-96 0 -162.5 61.5t-66.5 163.5v24q0 105 67 169t169 64q107 0 175.5 -75t68.5 -219v-30q0 -232 -63.5 -325.5t-202.5 -93.5q-97 0 -182 49zM458 446v13q0 81 -46.5 132.5
t-119.5 51.5q-75 0 -122 -46.5t-47 -126.5v-15q0 -78 49.5 -124t118.5 -46q65 0 116 47t51 114z" />
    <glyph glyph-name="Korea1.27" horiz-adv-x="305" 
d="M102 25v100h101v-100h-101zM102 467v100h101v-100h-101z" />
    <glyph glyph-name="Korea1.28" horiz-adv-x="305" 
d="M102 467v100h101v-100h-101zM77 -95l42 225h88l-72 -225h-58z" />
    <glyph glyph-name="Korea1.29" horiz-adv-x="600" 
d="M145 323v-6l390 -203v-73l-470 250v59l470 250v-72z" />
    <glyph glyph-name="Korea1.30" horiz-adv-x="600" 
d="M74 393v65h452v-65h-452zM74 182v65h452v-65h-452z" />
    <glyph glyph-name="Korea1.31" horiz-adv-x="600" 
d="M455 317v6l-390 205v72l470 -250v-59l-470 -250v73z" />
    <glyph glyph-name="Korea1.32" horiz-adv-x="520" 
d="M188 -54v98h96v-98h-96zM270 141h-68v47q0 48 19.5 80.5t77.5 89.5q4 4 19.5 18.5t20.5 20l16.5 18t16 21t10.5 21t8.5 25.5t2.5 27v16q0 54 -37 85.5t-99 31.5q-100 0 -166 -76l-45 46q32 39 85.5 66.5t123.5 27.5q98 0 154 -48.5t56 -131.5v-17q0 -24 -6 -46
t-12.5 -36.5t-23.5 -35t-25 -28.5t-32 -30t-30 -28q-37 -35 -51.5 -59.5t-14.5 -60.5v-44z" />
    <glyph glyph-name="Korea1.33" horiz-adv-x="983" 
d="M753 45q-43 0 -80 22t-51 64h-1q-17 -43 -61 -63.5t-87 -20.5q-91 0 -137.5 51t-46.5 144v76q0 92 48 143.5t135 51.5q94 0 133 -64v58h71v-321q0 -40 21.5 -59.5t56.5 -19.5q113 0 113 190v11q0 173 -98.5 270t-287.5 97q-166 0 -265.5 -101.5t-99.5 -277.5v-17
q0 -186 100.5 -289.5t284.5 -103.5q162 0 285 65l28 -57q-131 -71 -310 -71q-210 0 -332 122t-122 333v19q0 194 117 317t314 123q215 0 333.5 -116.5t118.5 -309.5v-13q0 -36 -5 -69.5t-17.5 -67.5t-32.5 -59t-52 -41t-73 -16zM362 306v-52q0 -139 118 -139q56 0 89.5 31.5
t33.5 90.5v100q0 43 -34 76t-89 33q-118 0 -118 -140z" />
    <glyph glyph-name="Korea1.34" horiz-adv-x="658" 
d="M369 695l267 -721h-75l-80 224h-305l-82 -224h-72l268 721h79zM270 454l-72 -195h261l-70 195q-30 81 -60 179q-24 -84 -59 -179z" />
    <glyph glyph-name="Korea1.35" horiz-adv-x="615" 
d="M83 -26v721h230q229 0 229 -176v-21q0 -52 -27.5 -90.5t-88.5 -53.5q69 -10 109 -51.5t40 -113.5v-25q0 -90 -58 -140t-173 -50h-261zM152 321v-285h186q166 0 166 129v22q0 69 -42 101.5t-146 32.5h-164zM308 634h-156v-254h163q79 0 118 27.5t39 92.5v18q0 63 -39 89.5
t-125 26.5z" />
    <glyph glyph-name="Korea1.36" horiz-adv-x="630" 
d="M342 706q134 0 228 -72l-36 -55q-86 61 -192 61q-98 0 -152 -69t-54 -185v-92q0 -131 55.5 -197.5t157.5 -66.5q113 0 198 74l41 -55q-95 -86 -240 -86q-139 0 -211 86t-72 245v89q0 153 73 238t204 85z" />
    <glyph glyph-name="Korea1.37" horiz-adv-x="668" 
d="M83 695h225q138 0 215 -80.5t77 -228.5v-103q0 -148 -77 -228.5t-215 -80.5h-225v721zM153 633v-597h156q101 0 161 63.5t60 188.5v93q0 125 -60 188.5t-161 63.5h-156z" />
    <glyph glyph-name="Korea1.38" horiz-adv-x="588" 
d="M83 695h434v-62h-364v-258h343v-62h-343v-277h371v-62h-441v721z" />
    <glyph glyph-name="Korea1.39" horiz-adv-x="561" 
d="M153 -26h-70v721h428v-62h-358v-276h337v-62h-337v-321z" />
    <glyph glyph-name="Korea1.40" horiz-adv-x="656" 
d="M345 706q139 0 233 -72l-36 -55q-86 61 -197 61q-102 0 -155.5 -68.5t-53.5 -185.5v-92q0 -264 223 -264q109 0 169 36v228h-170v62h238v-329q-88 -64 -240 -64q-146 0 -218.5 85.5t-72.5 245.5v89q0 154 72.5 238.5t207.5 84.5z" />
    <glyph glyph-name="Korea1.41" horiz-adv-x="677" 
d="M524 -26v341h-371v-341h-70v721h70v-310h371v310h70v-721h-70z" />
    <glyph glyph-name="Korea1.42" horiz-adv-x="236" 
d="M83 -26v721h70v-721h-70z" />
    <glyph glyph-name="Korea1.43" horiz-adv-x="453" 
d="M303 172v523h70v-530q0 -202 -184 -202q-106 0 -169 55l34 57q57 -46 131 -46q63 0 90.5 34t27.5 109z" />
    <glyph glyph-name="Korea1.44" horiz-adv-x="644" 
d="M595 695l-300 -308l319 -413h-90l-279 362l-92 -95v-267h-70v721h70v-364l348 364h94z" />
    <glyph glyph-name="Korea1.45" horiz-adv-x="534" 
d="M83 695h70v-659h361v-62h-431v721z" />
    <glyph glyph-name="Korea1.46" horiz-adv-x="824" 
d="M379 94l-191 408q-26 52 -36 91v-619h-69v721h86l244 -528l245 528h83v-721h-69v619q-8 -40 -34 -91l-193 -408h-66z" />
    <glyph glyph-name="Korea1.47" horiz-adv-x="681" 
d="M83 -26v721h83l331 -564q12 -21 34 -67v631h67v-721h-83l-332 566q-20 35 -33 65v-631h-67z" />
    <glyph glyph-name="Korea1.48" horiz-adv-x="692" 
d="M346 706q132 0 206.5 -86.5t74.5 -235.5v-99q0 -149 -74.5 -235.5t-206.5 -86.5t-206.5 86.5t-74.5 235.5v99q0 149 74 235.5t207 86.5zM346 26q98 0 154 69t56 196v87q0 127 -56 196t-154 69t-154 -69t-56 -196v-87q0 -127 56 -196t154 -69z" />
    <glyph glyph-name="Korea1.49" horiz-adv-x="598" 
d="M83 -26v721h244q111 0 171 -57t60 -149v-21q0 -91 -62 -150t-169 -59h-174v-285h-70zM321 632h-168v-310h157q90 0 133.5 39t43.5 109v18q0 66 -42 105t-124 39z" />
    <glyph glyph-name="Korea1.50" horiz-adv-x="692" 
d="M346 706q132 0 206.5 -86.5t74.5 -235.5v-99q0 -146 -69 -230l84 -84l-45 -47l-87 87q-68 -48 -164 -48q-132 0 -206.5 86.5t-74.5 235.5v99q0 149 74 235.5t207 86.5zM346 26q67 0 115 33l-93 94l45 47l95 -95q49 70 49 186v87q0 127 -56.5 196t-154.5 69t-154.5 -69
t-56.5 -196v-87q0 -127 56.5 -196t154.5 -69z" />
    <glyph glyph-name="Korea1.51" horiz-adv-x="630" 
d="M499 -26l-139 312q-9 -1 -27 -1h-180v-311h-70v721h249q106 0 166.5 -54.5t60.5 -141.5v-15q0 -65 -34.5 -113t-95.5 -70l145 -327h-75zM322 632h-169v-284h158q177 0 177 139v10q0 64 -42 99.5t-124 35.5z" />
    <glyph glyph-name="Korea1.52" horiz-adv-x="606" 
d="M302 28q82 0 131 36.5t49 87.5v21q0 53 -38.5 83t-150.5 55q-122 27 -171 72.5t-49 116.5v23q0 81 66.5 132t169.5 51q129 0 214 -61l-33 -57q-75 54 -181 54q-69 0 -117 -32.5t-48 -86.5v-20q0 -48 37.5 -77t133.5 -51q136 -31 187 -75.5t51 -124.5v-23
q0 -80 -67.5 -134.5t-180.5 -54.5q-141 0 -245 80l36 59q101 -74 206 -74z" />
    <glyph glyph-name="Korea1.53" horiz-adv-x="571" 
d="M20 695h531v-62h-231v-659h-70v659h-230v62z" />
    <glyph glyph-name="Korea1.54" horiz-adv-x="672" 
d="M336 26q95 0 141 61t46 194v414h69v-440q0 -147 -66.5 -219.5t-189.5 -72.5q-124 0 -190 72.5t-66 219.5v440h69v-414q0 -133 46 -194t141 -61z" />
    <glyph glyph-name="Korea1.55" horiz-adv-x="639" 
d="M279 -26l-257 721h77l222 -649h1l222 649h73l-258 -721h-80z" />
    <glyph glyph-name="Korea1.56" horiz-adv-x="958" 
d="M227 -26l-197 721h75l162 -646h1l172 646h79l172 -646h1l163 646h73l-199 -721h-80l-171 640l-171 -640h-80z" />
    <glyph glyph-name="Korea1.57" horiz-adv-x="641" 
d="M592 695l-227 -347l242 -374h-86l-201 327l-206 -327h-80l243 375l-231 346h82l196 -302l189 302h79z" />
    <glyph glyph-name="Korea1.58" horiz-adv-x="602" 
d="M582 695l-244 -426v-295h-70v295l-248 426h79l205 -362l200 362h78z" />
    <glyph glyph-name="Korea1.59" horiz-adv-x="597" 
d="M542 695v-47l-430 -614h449v-60h-533v55l425 606h-401v60h490z" />
    <glyph glyph-name="Korea1.60" horiz-adv-x="356" 
d="M318 -108v-62h-235v936h235v-62h-168v-812h168z" />
    <glyph glyph-name="Korea1.61" horiz-adv-x="947" 
d="M40 353v51h98l-70 291h67l64 -291h169l70 291h72l70 -291h170l66 291h64l-71 -291h98v-51h-111l-92 -379h-76l-91 379h-128l-91 -379h-76l-92 379h-110zM593 353l74 -304h3l68 304h-145zM211 353l68 -304h3l73 304h-144zM473 620l-52 -216h104z" />
    <glyph glyph-name="Korea1.62" horiz-adv-x="356" 
d="M38 -170v62h168v812h-168v62h235v-936h-235z" />
    <glyph glyph-name="Korea1.63" horiz-adv-x="524" 
d="M474 401h-70l-142 262l-142 -262h-70l180 323h65z" />
    <glyph glyph-name="Korea1.64" horiz-adv-x="480" 
d="M480 -75v-55h-480v55h480z" />
    <glyph glyph-name="Korea1.65" horiz-adv-x="600" 
d="M394 568h-64l-124 141h83z" />
    <glyph glyph-name="Korea1.66" horiz-adv-x="533" 
d="M226 -34q-77 0 -125 41.5t-48 112.5v22q0 67 49.5 107.5t140.5 40.5h152v50q0 59 -32.5 90.5t-95.5 31.5q-80 0 -159 -55l-33 52q91 64 193 64q91 0 142.5 -45.5t51.5 -126.5v-377h-66v66h-1q-17 -30 -60 -51q-46 -23 -109 -23zM395 142v91h-151q-62 0 -92.5 -25.5
t-30.5 -68.5v-16q0 -49 34 -73.5t81 -24.5q58 0 108 31q51 32 51 86z" />
    <glyph glyph-name="Korea1.67" horiz-adv-x="579" 
d="M148 38h-1v-64h-67v756h68v-293q24 40 67 63t94 23q97 0 155.5 -61t58.5 -170v-95q0 -108 -59.5 -169.5t-154.5 -61.5q-106 0 -161 72zM455 207v75q0 85 -40 132t-110 47q-60 0 -108.5 -41.5t-48.5 -108.5v-158q0 -49 45 -88t112 -39q69 0 109.5 48t40.5 133z" />
    <glyph glyph-name="Korea1.68" horiz-adv-x="494" 
d="M278 523q107 0 177 -53l-31 -53q-64 45 -146 45q-71 0 -112.5 -48t-41.5 -132v-69q0 -88 41.5 -136.5t114.5 -48.5q87 0 158 53l32 -54q-79 -61 -191 -61q-105 0 -164.5 65t-59.5 182v67q0 115 61 179t162 64z" />
    <glyph glyph-name="Korea1.69" horiz-adv-x="579" 
d="M432 -26v71h-1q-21 -38 -65.5 -58.5t-94.5 -20.5q-95 0 -155 61.5t-60 169.5v95q0 108 59.5 169.5t154.5 61.5q108 0 161 -76v283h68v-756h-67zM124 282v-75q0 -85 41 -133t109 -48q69 0 113 36.5t44 104.5v162q0 50 -45.5 92t-111.5 42q-69 0 -109.5 -48t-40.5 -133z
" />
    <glyph glyph-name="Korea1.70" horiz-adv-x="545" 
d="M123 279h300v9q0 84 -39 129.5t-110 45.5t-111 -47.5t-40 -127.5v-9zM449 79l30 -52q-87 -61 -196 -61q-108 0 -168 65t-60 182v67q0 114 58.5 178.5t160.5 64.5q104 0 160.5 -65t56.5 -180v-56h-368v-9q0 -89 43 -138t118 -49q91 0 165 53z" />
    <glyph glyph-name="Korea1.71" horiz-adv-x="374" 
d="M124 -26v481h-92v58h92v68q0 85 34.5 120t104.5 35q57 0 91 -13l-10 -56q-36 10 -76 10q-41 0 -58.5 -22.5t-17.5 -76.5v-65h149v-58h-149v-481h-68z" />
    <glyph glyph-name="Korea1.72" horiz-adv-x="579" 
d="M430 -19v74h-1q-21 -39 -65 -59t-94 -20q-95 0 -155 61.5t-60 169.5v85q0 108 59.5 169.5t154.5 61.5q56 0 97.5 -21.5t64.5 -54.5v66h67v-530q0 -113 -58.5 -172.5t-161.5 -59.5q-108 0 -180 56l31 53q37 -26 69.5 -35.5t79.5 -9.5q152 0 152 166zM123 282v-65
q0 -85 41 -133t109 -48q69 0 113 36.5t44 104.5v152q0 50 -45.5 92t-111.5 42q-69 0 -109.5 -48t-40.5 -133z" />
    <glyph glyph-name="Korea1.73" horiz-adv-x="582" 
d="M312 523q91 0 142.5 -50.5t51.5 -135.5v-363h-68v346q0 141 -136 141q-65 0 -109.5 -43.5t-44.5 -93.5v-350h-68v756h68v-292q22 35 63.5 60t100.5 25z" />
    <glyph glyph-name="Korea1.74" horiz-adv-x="234" 
d="M83 -26v539h68v-539h-68zM80 616v76h74v-76h-74z" />
    <glyph glyph-name="Korea1.75" horiz-adv-x="243" 
d="M89 616v76h74v-76h-74zM160 513v-605q0 -85 -34.5 -121t-104.5 -36q-57 0 -91 13l10 56q36 -10 76 -10q41 0 58.5 23t17.5 78v602h68z" />
    <glyph glyph-name="Korea1.76" horiz-adv-x="540" 
d="M499 513l-216 -207l235 -332h-83l-200 287l-87 -84v-203h-68v756h68v-472l260 255h91z" />
    <glyph glyph-name="Korea1.77" horiz-adv-x="228" 
d="M80 -26v756h68v-756h-68z" />
    <glyph glyph-name="Korea1.78" horiz-adv-x="878" 
d="M625 523q89 0 133 -49t44 -137v-363h-68v345q0 71 -26 106.5t-95 35.5q-61 0 -98.5 -41t-39.5 -92v-354h-68v345q0 71 -26 106.5t-95 35.5q-63 0 -100.5 -42.5t-37.5 -94.5v-350h-68v539h67v-75q47 85 151 85q125 0 163 -98q21 40 63 69t101 29z" />
    <glyph glyph-name="Korea1.79" horiz-adv-x="582" 
d="M312 523q91 0 142.5 -50.5t51.5 -135.5v-363h-68v346q0 141 -136 141q-65 0 -109.5 -43.5t-44.5 -93.5v-350h-68v539h67v-75q22 35 64 60t101 25z" />
    <glyph glyph-name="Korea1.80" horiz-adv-x="568" 
d="M284 523q108 0 168.5 -64.5t60.5 -180.5v-67q0 -116 -60.5 -180.5t-168.5 -64.5t-168.5 64.5t-60.5 180.5v67q0 117 60.5 181t168.5 64zM284 26q76 0 118 48t42 141v59q0 93 -42 141t-118 48t-118 -48t-42 -141v-59q0 -93 42 -141t118 -48z" />
    <glyph glyph-name="Korea1.81" horiz-adv-x="579" 
d="M149 38h-1v-278h-68v753h67v-76q24 40 67.5 63t94.5 23q97 0 155.5 -61t58.5 -170v-95q0 -108 -59.5 -169.5t-154.5 -61.5q-105 0 -160 72zM455 207v75q0 85 -40 132t-110 47q-60 0 -108.5 -41.5t-48.5 -108.5v-158q0 -49 45 -88t112 -39q69 0 109.5 48t40.5 133z" />
    <glyph glyph-name="Korea1.82" horiz-adv-x="579" 
d="M431 -240v285h-1q-21 -39 -65 -59t-94 -20q-95 0 -155 61.5t-60 169.5v95q0 108 59.5 169.5t154.5 61.5q56 0 97.5 -21.5t64.5 -54.5v66h67v-753h-68zM124 282v-75q0 -85 41 -133t109 -48q69 0 113 36.5t44 104.5v162q0 50 -45.5 92t-111.5 42q-69 0 -109.5 -48
t-40.5 -133z" />
    <glyph glyph-name="Korea1.83" horiz-adv-x="391" 
d="M379 512l-21 -69q-28 11 -65 11q-66 0 -105.5 -48.5t-39.5 -125.5v-306h-68v539h67v-95q20 44 59 74.5t96 30.5q47 0 77 -11z" />
    <glyph glyph-name="Korea1.84" horiz-adv-x="495" 
d="M251 27q63 0 98.5 25.5t35.5 61.5v10q0 40 -33 61.5t-112 36.5q-89 17 -134 49.5t-45 94.5v14q0 61 50.5 102t144.5 41q110 0 185 -56l-31 -51q-70 47 -156 47q-59 0 -92 -23.5t-33 -60.5v-11q0 -62 135 -87q101 -19 145 -54.5t44 -99.5v-15q0 -64 -56 -105t-142 -41
q-120 0 -207 63l33 54q83 -56 170 -56z" />
    <glyph glyph-name="Korea1.85" horiz-adv-x="388" 
d="M122 124v331h-92v58h92v139h68v-139h149v-58h-149v-328q0 -54 17.5 -76.5t58.5 -22.5q40 0 76 10l10 -56q-34 -13 -91 -13q-73 0 -106 35t-33 120z" />
    <glyph glyph-name="Korea1.86" horiz-adv-x="578" 
d="M264 -34q-90 0 -139 50t-49 136v361h68v-344q0 -66 28 -103.5t102 -37.5q65 0 110 42.5t45 92.5v350h68v-539h-67v75q-21 -35 -64 -59t-102 -24z" />
    <glyph glyph-name="Korea1.87" horiz-adv-x="501" 
d="M290 -26h-76l-197 539h73l163 -469l160 469h71z" />
    <glyph glyph-name="Korea1.88" horiz-adv-x="754" 
d="M246 -26h-79l-147 539h69l119 -471l132 471h77l135 -471l116 471h66l-144 -539h-79l-134 463z" />
    <glyph glyph-name="Korea1.89" horiz-adv-x="509" 
d="M478 513l-181 -260l190 -279h-79l-153 237l-158 -237h-75l192 279l-181 260h76l148 -220l147 220h74z" />
    <glyph glyph-name="Korea1.90" horiz-adv-x="505" 
d="M17 513h70l167 -463l164 463h70l-280 -762l-58 21l69 193z" />
    <glyph glyph-name="Korea1.91" horiz-adv-x="488" 
d="M439 513v-46l-329 -437h343v-56h-423v52l325 431h-305v56h389z" />
    <glyph glyph-name="Korea1.92" horiz-adv-x="419" 
d="M38 278v65q55 1 80.5 20.5t25.5 62.5v201q0 74 34 106.5t110 32.5h93v-61h-84q-46 0 -66 -16t-20 -64v-192q0 -105 -78 -123q78 -17 78 -123v-222q0 -47 19.5 -60.5t66.5 -13.5h84v-61h-93q-77 0 -110.5 30.5t-33.5 102.5v230q0 43 -25.5 63.5t-80.5 21.5z" />
    <glyph glyph-name="Korea1.93" horiz-adv-x="281" 
d="M171 765v-935h-61v935h61z" />
    <glyph glyph-name="Korea1.94" horiz-adv-x="419" 
d="M381 343v-65q-55 -1 -80.5 -21.5t-25.5 -63.5v-230q0 -72 -33.5 -102.5t-110.5 -30.5h-93v61h84q47 0 66.5 13.5t19.5 60.5v222q0 106 78 123q-78 18 -78 123v192q0 48 -20 64t-66 16h-84v61h93q76 0 110 -32.5t34 -106.5v-201q0 -43 25.5 -62.5t80.5 -20.5z" />
    <glyph glyph-name="Korea1.95" horiz-adv-x="600" 
d="M394 242q-32 0 -59.5 15.5t-44 33.5t-39.5 33.5t-46 15.5q-67 0 -80 -101h-62q10 71 45.5 116t96.5 45q33 0 61 -15.5t44.5 -33.5t39 -33.5t45.5 -15.5q67 0 80 101h62q-19 -161 -143 -161z" />
    <glyph glyph-name="Korea1.96" horiz-adv-x="947" 
d="M40 353v51h98l-70 291h67l64 -291h169l70 291h72l70 -291h170l66 291h64l-71 -291h98v-51h-111l-92 -379h-76l-91 379h-128l-91 -379h-76l-92 379h-110zM593 353l74 -304h3l68 304h-145zM211 353l68 -304h3l73 304h-144zM473 620l-52 -216h104z" />
    <glyph glyph-name="Korea1.97" horiz-adv-x="418" 
d="M384 327v-73h-350v73h350z" />
    <glyph glyph-name="Korea1.98" horiz-adv-x="840" 
d="M420 -33q-155 0 -260 107t-105 261q0 152 105 259t260 107t260 -107t105 -259q0 -153 -105 -260.5t-260 -107.5zM420 11q137 0 226.5 92t89.5 232q0 139 -89.5 230.5t-226.5 91.5q-138 0 -227 -91.5t-89 -230.5q0 -141 89 -232.5t227 -91.5zM429 545q81 0 139 -44
l-32 -50q-47 34 -107 34q-47 0 -77 -31.5t-30 -91.5v-52q0 -64 30 -96t78 -32q65 0 117 38l31 -51q-57 -47 -148 -47q-83 0 -129.5 49.5t-46.5 137.5v51q0 87 47.5 136t127.5 49z" />
    <glyph glyph-name="Korea1.99" horiz-adv-x="741" 
d="M333 369v326h79l93 -199h2l88 199h81v-326h-55v261h-3l-89 -196h-49l-93 196h-2v-261h-52zM130 369v276h-103v50h264v-50h-103v-276h-58z" />
    <glyph glyph-name="Korea1.100" horiz-adv-x="910" 
d="M671 -55v100h101v-100h-101zM405 -55v100h101v-100h-101zM139 -55v100h101v-100h-101z" />
    <glyph glyph-name="Korea1.101" horiz-adv-x="910" 
 />
    <glyph glyph-name="Korea1.102" horiz-adv-x="910" 
d="M322 -53l-64 -57q-51 69 -91.5 112t-100.5 90l57 50q64 -48 105.5 -88.5t93.5 -106.5z" />
    <glyph glyph-name="Korea1.103" horiz-adv-x="910" 
d="M174 -106q-62 0 -102 41t-40 102q0 60 40 101t102 41q63 0 103 -41t40 -101q0 -61 -40 -102t-103 -41zM174 -55q40 0 66 27t26 65t-26 65t-66 27t-65.5 -27t-25.5 -65t25.5 -65t65.5 -27z" />
    <glyph glyph-name="Korea1.104" horiz-adv-x="910" 
d="M404 253v100h101v-100h-101z" />
    <glyph glyph-name="Korea1.105" horiz-adv-x="910" 
d="M547 253v100h101v-100h-101zM261 253v100h101v-100h-101z" />
    <glyph glyph-name="Korea1.106" horiz-adv-x="910" 
d="M671 253v100h101v-100h-101zM405 253v100h101v-100h-101zM139 253v100h101v-100h-101z" />
    <glyph glyph-name="Korea1.107" horiz-adv-x="600" 
d="M345 595v72h66v-72h-66zM189 595v72h66v-72h-66z" />
    <glyph glyph-name="Korea1.108" horiz-adv-x="910" 
d="M386 446h83l-153 -309h-55zM566 446h83l-153 -309h-55z" />
    <glyph glyph-name="Korea1.109" horiz-adv-x="412" 
d="M412 341v-58h-412v58h412z" />
    <glyph glyph-name="Korea1.110" horiz-adv-x="824" 
d="M824 341v-58h-824v58h824z" />
    <glyph glyph-name="Korea1.111" horiz-adv-x="910" 
d="M395 780v-960h-56v960h56zM571 780v-960h-57v960h57z" />
    <glyph glyph-name="Korea1.112" horiz-adv-x="910" 
d="M72 758l796 -881l-31 -31l-795 879z" />
    <glyph glyph-name="Korea1.113" horiz-adv-x="910" 
d="M701 366l41 -27q-24 -38 -66.5 -66t-84.5 -28q-71 0 -136 35q-77 41 -136 41q-67 0 -110 -63l-41 27q24 38 66.5 66t84.5 28q72 0 136 -35q75 -41 136 -41q67 0 110 63z" />
    <glyph glyph-name="Korea1.114" horiz-adv-x="200" 
d="M172 771l-42 -225h-83l70 225h55z" />
    <glyph glyph-name="Korea1.115" horiz-adv-x="200" 
d="M28 532l42 225h83l-70 -225h-55z" />
    <glyph glyph-name="Korea1.116" horiz-adv-x="350" 
d="M322 771l-42 -225h-83l70 225h55zM175 771l-42 -225h-83l70 225h55z" />
    <glyph glyph-name="Korea1.117" horiz-adv-x="350" 
d="M28 532l42 225h83l-70 -225h-55zM175 532l42 225h83l-70 -225h-55z" />
    <glyph glyph-name="Korea1.118" horiz-adv-x="344" 
d="M100 20l207 -117l-28 -49l-239 133v628l239 133l28 -49l-207 -116v-563z" />
    <glyph glyph-name="Korea1.119" horiz-adv-x="358" 
d="M311 615v-628l-239 -133l-28 49l207 117v563l-207 116l28 49z" />
    <glyph glyph-name="Korea1.120" horiz-adv-x="467" 
d="M106 301l318 -403l-39 -30l-341 433l340 433l40 -30z" />
    <glyph glyph-name="Korea1.121" horiz-adv-x="477" 
d="M87 734l341 -433l-340 -433l-40 30l318 403l-318 403z" />
    <glyph glyph-name="Korea1.122" horiz-adv-x="474" 
d="M83 301l248 -428l-41 -24l-261 452l261 452l41 -24zM194 301l247 -428l-41 -24l-261 452l261 452l41 -24z" />
    <glyph glyph-name="Korea1.123" horiz-adv-x="474" 
d="M68 753l261 -452l-261 -452l-41 24l247 428l-247 428zM178 753l261 -452l-261 -452l-41 24l248 428l-248 428z" />
    <glyph glyph-name="Korea1.124" horiz-adv-x="351" 
d="M324 769v-61h-224v-371h-73v432h297z" />
    <glyph glyph-name="Korea1.125" horiz-adv-x="351" 
d="M324 265v-432h-297v61h224v371h73z" />
    <glyph glyph-name="Korea1.126" horiz-adv-x="356" 
d="M111 702h170v25h-206v-348h36v323zM326 769v-109h-170v-323h-126v432h296z" />
    <glyph glyph-name="Korea1.127" horiz-adv-x="356" 
d="M75 -125h206v348h-36v-323h-170v-25zM326 265v-432h-296v109h170v323h126z" />
    <glyph glyph-name="Korea1.128" horiz-adv-x="374" 
d="M373 -129h-352v860h351q-113 -74 -180 -188.5t-67 -242.5t67 -242t181 -187z" />
    <glyph glyph-name="Korea1.129" horiz-adv-x="382" 
d="M357 731v-860h-352q114 73 181 187t67 242t-67 242.5t-180 188.5h351z" />
    <glyph glyph-name="Korea1.130" horiz-adv-x="600" 
d="M55 109h490v-60h-490v60zM267 158v214h-212v62h212v214h66v-214h212v-62h-212v-214h-66z" />
    <glyph glyph-name="Korea1.131" horiz-adv-x="600" 
d="M74 128l183 193l-183 195l43 43l183 -196l182 192l45 -45l-183 -191l183 -193l-43 -43l-182 193l-183 -193z" />
    <glyph glyph-name="Korea1.132" horiz-adv-x="600" 
d="M54 351h492v-64h-492v64zM258 477v82h84v-82h-84zM258 79v82h84v-82h-84z" />
    <glyph glyph-name="Korea1.133" horiz-adv-x="600" 
d="M74 393v65h279l88 134h60l-88 -134h113v-65h-155l-96 -146h251v-65h-293l-86 -132h-60l86 132h-99v65h141l96 146h-237z" />
    <glyph glyph-name="Korea1.134" horiz-adv-x="600" 
d="M535 166l-470 200v52l470 198v-61l-392 -165l392 -160v-64zM65 105h470v-56h-470v56z" />
    <glyph glyph-name="Korea1.135" horiz-adv-x="600" 
d="M535 366l-470 -200v64l392 160l-392 165v61l470 -198v-52zM65 105h470v-56h-470v56z" />
    <glyph glyph-name="Korea1.136" horiz-adv-x="600" 
d="M452 162q-14 0 -27 3t-22.5 6.5t-21.5 12.5t-18.5 13.5t-18 17.5t-15 17.5l-15.5 19.5t-14 18q-24 -30 -34 -41.5t-32 -31.5t-44 -27.5t-50 -7.5q-60 0 -96.5 39.5t-36.5 102.5q0 58 40 99.5t101 41.5q16 0 29.5 -3t27 -11t22 -12.5t22 -19l17.5 -19t18.5 -22.5t15.5 -20
q3 3 8 10q26 32 41 48t45.5 32.5t65.5 16.5q60 0 96.5 -39t36.5 -102q0 -59 -40 -100.5t-101 -41.5zM454 212q38 0 62.5 27t24.5 65q0 40 -23.5 66t-61.5 26q-23 0 -44.5 -13t-35 -28t-35.5 -42q-5 -6 -7 -9l18 -23t22 -26.5t21 -20t28 -17.5t31 -5zM144 212q24 0 48 15.5
t38 31t37 45.5q-3 4 -15.5 19.5l-17.5 22t-17.5 18.5t-21.5 17.5t-22 10t-26 4.5q-39 0 -63 -27t-24 -65q0 -40 23 -66t61 -26z" />
    <glyph glyph-name="Korea1.137" horiz-adv-x="600" 
d="M547 121q0 -24 -17 -40.5t-40 -16.5q-24 0 -40.5 16.5t-16.5 40.5q0 23 16.5 39.5t40.5 16.5q23 0 40 -16.5t17 -39.5zM167 121q0 -24 -17 -40.5t-40 -16.5q-24 0 -40.5 16.5t-16.5 40.5q0 23 16.5 39.5t40.5 16.5q23 0 40 -16.5t17 -39.5zM356 516q0 -24 -16 -41
t-40 -17t-41 17t-17 41q0 23 17 39.5t41 16.5t40 -16.5t16 -39.5z" />
    <glyph glyph-name="Korea1.138" horiz-adv-x="302" 
d="M267 609q0 -49 -32.5 -82.5t-83.5 -33.5t-83.5 33.5t-32.5 82.5t32.5 82.5t83.5 33.5t83.5 -33.5t32.5 -82.5zM217 609q0 29 -18 49t-48 20t-48 -20t-18 -49t18 -49t48 -20t48 20t18 49z" />
    <glyph glyph-name="Korea1.139" horiz-adv-x="457" 
d="M231 730h86l-133 -242h-44z" />
    <glyph glyph-name="Korea1.140" horiz-adv-x="590" 
d="M231 730h83l-133 -242h-41zM367 730h83l-133 -242h-41z" />
    <glyph glyph-name="Korea1.141" horiz-adv-x="800" 
d="M249 622q0 -38 -26.5 -64t-68.5 -26t-68.5 26t-26.5 64t26.5 64t68.5 26t68.5 -26t26.5 -64zM528 706q134 0 228 -72l-36 -55q-86 61 -192 61q-98 0 -152 -69t-54 -185v-92q0 -131 55.5 -197.5t157.5 -66.5q113 0 198 74l41 -55q-95 -86 -240 -86q-139 0 -211 86t-72 245
v89q0 153 73 238t204 85zM105 622q0 -23 13.5 -37.5t35.5 -14.5t35.5 14.5t13.5 37.5t-13.5 37.5t-35.5 14.5t-35.5 -14.5t-13.5 -37.5z" />
    <glyph glyph-name="Korea1.142" horiz-adv-x="658" 
d="M94 -26h-72l256 690q-42 26 -42 77q0 36 26.5 62.5t66.5 26.5t66.5 -26.5t26.5 -62.5q0 -49 -42 -76l256 -691h-75l-80 224h-305zM270 454l-72 -195h261l-70 195q-30 81 -60 179q-24 -84 -59 -179zM329 688q22 0 35.5 14.5t13.5 38.5q0 22 -13.5 36t-35.5 14
q-23 0 -36.5 -14t-13.5 -36q0 -24 13.5 -38.5t36.5 -14.5z" />
    <glyph glyph-name="Korea1.143" horiz-adv-x="498" 
d="M260 -26v96q-97 6 -151 65t-54 169v66q0 107 55.5 165.5t149.5 63.5v96h55v-97q85 -7 144 -51l-31 -52q-53 37 -113 43v-406q68 7 127 52l32 -54q-67 -52 -159 -59v-97h-55zM122 304q0 -79 37 -122.5t101 -49.5v407q-65 -6 -101.5 -48.5t-36.5 -118.5v-68z" />
    <glyph glyph-name="Korea1.144" horiz-adv-x="550" 
d="M62 311v56h86v100q0 116 59 172t149 56q84 0 139 -32l-26 -56q-55 23 -106 23q-69 0 -107 -37.5t-38 -132.5v-93h202v-56h-202v-94q0 -72 -13.5 -111.5t-50.5 -67.5v-2h363v-62h-454v55q47 27 66 69.5t19 116.5v96h-86z" />
    <glyph glyph-name="Korea1.145" horiz-adv-x="602" 
d="M268 -26v154h-173v56h173v72h-173v56h158l-218 376h78l191 -343h3l187 343h71l-213 -376h159v-56h-173v-72h173v-56h-173v-154h-70z" />
    <glyph glyph-name="Korea1.146" horiz-adv-x="776" 
d="M49 262q0 115 80.5 196t196.5 81q94 0 171 -59l121 120h-109v63h219v-218h-64v110l-121 -122q60 -76 60 -171q0 -115 -81 -196t-196 -81q-116 0 -196.5 81t-80.5 196zM112 262q0 -90 61.5 -154.5t152.5 -64.5q89 0 151.5 64.5t62.5 154.5t-62 154.5t-152 64.5
q-91 0 -152.5 -64t-61.5 -155z" />
    <glyph glyph-name="Korea1.147" horiz-adv-x="652" 
d="M292 57v130q-104 14 -173.5 91t-69.5 184q0 115 80.5 196t196.5 81q115 0 196 -81t81 -196q0 -107 -69.5 -184t-173.5 -91v-130h142v-64h-142v-142h-68v142h-143v64h143zM112 462q0 -90 61.5 -154.5t152.5 -64.5q89 0 151.5 64.5t62.5 154.5t-62 154.5t-152 64.5
q-91 0 -152.5 -64t-61.5 -155z" />
    <glyph glyph-name="Korea1.148" horiz-adv-x="910" 
d="M760 63v-63h-610v45l472 550l51 -42l-424 -490h511z" />
    <glyph glyph-name="Korea1.149" horiz-adv-x="910" 
d="M774 65v-65h-638v65h286v509h66v-509h286z" />
    <glyph glyph-name="Korea1.150" horiz-adv-x="910" 
d="M715 575h-66q-28 50 -77 81.5t-116 31.5q-68 0 -117.5 -31.5t-77.5 -81.5h-67q87 161 260 161q174 0 261 -161z" />
    <glyph glyph-name="Korea1.151" horiz-adv-x="516" 
d="M84 627l-23 45q72 53 166 53q104 0 178.5 -93.5t74.5 -258.5q0 -182 -76.5 -283t-185.5 -101q-92 0 -141.5 59.5t-49.5 146.5q0 101 63.5 172t153.5 71q59 0 104.5 -27.5t65.5 -63.5h1q1 12 1 38q0 135 -59 209t-134 74q-82 0 -139 -41zM225 45q70 0 119.5 68t61.5 166
q-17 44 -58.5 73.5t-95.5 29.5q-65 0 -111 -53t-46 -131q0 -70 36 -111.5t94 -41.5z" />
    <glyph glyph-name="Korea1.152" horiz-adv-x="910" 
d="M455 78l291 467h-582zM65 596h780l-390 -618z" />
    <glyph glyph-name="Korea1.153" horiz-adv-x="600" 
d="M548 145h-493v51h493v-51zM548 437h-493v51h493v-51zM548 291h-493v51h493v-51z" />
    <glyph glyph-name="Korea1.154" horiz-adv-x="600" 
d="M55 204v57h492v-57h-492zM55 366v56h492v-56h-492zM145 535q0 25 18.5 44t44.5 19t44.5 -19t18.5 -44t-18.5 -44t-44.5 -19t-44.5 19t-18.5 44zM339 89q0 26 19 45t44 19t44 -19t19 -45q0 -25 -18.5 -44t-44.5 -19t-44.5 19t-18.5 44z" />
    <glyph glyph-name="Korea1.155" horiz-adv-x="514" 
d="M236 -155q-93 0 -164 40v56l46 -19.5t45 -12t67 -6.5q66 0 100 26.5t34 71.5q0 44 -21.5 64.5t-79.5 39.5q-9 3 -36.5 11.5t-36.5 11.5t-31.5 11.5t-30.5 13l-25.5 14t-24 17.5l-17 20t-14.5 24.5t-7.5 29t-3.5 35.5q0 99 106 132q-57 40 -57 124q0 71 49.5 113.5
t140.5 42.5q77 0 143 -33v-55q-64 29 -142 29q-60 0 -93 -24t-33 -67q0 -42 17.5 -63.5t64.5 -37.5l47 -15l44.5 -14t38 -13.5t35.5 -15.5l27 -16.5t24 -21t15.5 -25t11.5 -31.5t3 -38q0 -103 -108 -136q62 -39 62 -121q0 -76 -51.5 -119t-144.5 -43zM301 366
q-98 30 -104 32q-46 -9 -71 -35t-25 -65q0 -42 22.5 -66.5t73.5 -40.5q108 -33 113 -35q100 20 100 103q0 43 -25 66t-84 41z" />
    <glyph glyph-name="Korea1.156" horiz-adv-x="910" 
d="M492 314l324 -320l-45 -44l-320 323l-319 -323l-42 42l322 320l-320 321l41 44l319 -323l322 323l40 -42zM514 611h1q0 -28 -20.5 -49t-48.5 -21t-49 21t-21 49t20.5 48.5t48.5 20.5t48.5 -20.5t20.5 -48.5zM217 311h1q0 -27 -20.5 -47.5t-48.5 -20.5q-27 0 -48.5 20.5
t-21.5 47.5q0 28 21 49t48 21q28 0 48.5 -21t20.5 -49zM831 311q0 -27 -20.5 -47t-48.5 -20q-27 0 -48 20t-21 47q0 30 20 50t48 20t49 -20.5t21 -49.5zM515 3q0 -27 -20.5 -47.5t-48.5 -20.5t-48 20.5t-20 47.5q0 29 19.5 49.5t47.5 20.5t49 -20.5t21 -49.5z" />
    <glyph glyph-name="Korea1.157" horiz-adv-x="910" 
d="M457 764l108 -319h337l-273 -203l102 -322l-274 195l-279 -195l105 322l-275 203h342zM538 408l-82 241l-80 -241h-258l207 -154l-81 -243l212 148l207 -148l-76 243l206 154h-255z" />
    <glyph glyph-name="Korea1.158" horiz-adv-x="910" 
d="M457 764l108 -319h337l-273 -203l102 -322l-274 195l-279 -195l105 322l-275 203h342z" />
    <glyph glyph-name="Korea1.159" horiz-adv-x="910" 
d="M96 344q0 148 105 253.5t253 105.5q149 0 254 -105.5t105 -253.5q0 -149 -105 -254t-254 -105t-253.5 105t-104.5 254zM146 344q0 -128 90 -218t218 -90q129 0 219 90t90 218t-90 218.5t-219 90.5q-127 0 -217.5 -90.5t-90.5 -218.5z" />
    <glyph glyph-name="Korea1.160" horiz-adv-x="910" 
d="M96 344q0 148 105 253.5t253 105.5q149 0 254 -105.5t105 -253.5q0 -149 -105 -254t-254 -105t-253.5 105t-104.5 254z" />
    <glyph glyph-name="Korea1.161" horiz-adv-x="910" 
d="M96 344q0 148 105 253.5t253 105.5q149 0 254 -105.5t105 -253.5q0 -149 -105 -254t-254 -105t-253.5 105t-104.5 254zM148 344q0 -127 89.5 -216.5t216.5 -89.5q128 0 217.5 89.5t89.5 216.5t-89.5 217t-217.5 90q-126 0 -216 -90.5t-90 -216.5zM239 344q0 89 63 152
t152 63t152 -63t63 -152t-63 -152t-152 -63t-152 63t-63 152zM292 344q0 -67 47.5 -114.5t114.5 -47.5t115 47.5t48 114.5q0 66 -48 114.5t-115 48.5q-66 0 -114 -48.5t-48 -114.5z" />
    <glyph glyph-name="Korea1.162" horiz-adv-x="910" 
d="M66 343l389 389l388 -389l-388 -389zM766 343l-311 312l-312 -311l312 -313z" />
    <glyph glyph-name="Korea1.163" horiz-adv-x="910" 
d="M456 -46l-390 390l389 388l389 -389z" />
    <glyph glyph-name="Korea1.164" horiz-adv-x="910" 
d="M111 0v687h687v-687h-687zM747 636h-585v-584h585v584z" />
    <glyph glyph-name="Korea1.165" horiz-adv-x="910" 
d="M799 0h-688v687h688v-687z" />
    <glyph glyph-name="Korea1.166" horiz-adv-x="910" 
d="M823 -69h-736l368 731zM170 -19h566l-283 565z" />
    <glyph glyph-name="Korea1.167" horiz-adv-x="910" 
d="M822 -69h-734l367 731z" />
    <glyph glyph-name="Korea1.168" horiz-adv-x="910" 
d="M87 652h736l-368 -731zM738 601h-566l283 -565z" />
    <glyph glyph-name="Korea1.169" horiz-adv-x="910" 
d="M88 652h734l-367 -731z" />
    <glyph glyph-name="Korea1.170" horiz-adv-x="910" 
d="M104 314v59h553l-75 127l15 17l208 -173l-208 -173l-15 17l75 126h-553z" />
    <glyph glyph-name="Korea1.171" horiz-adv-x="910" 
d="M805 373v-59h-553l75 -126l-15 -17l-208 173l208 173l15 -17l-75 -127h553z" />
    <glyph glyph-name="Korea1.172" horiz-adv-x="910" 
d="M484 0h-58v553l-127 -75l-17 15l173 208l173 -208l-17 -15l-127 75v-553z" />
    <glyph glyph-name="Korea1.173" horiz-adv-x="910" 
d="M426 687h58v-552l127 74l17 -15l-173 -208l-173 208l17 15l127 -74v552z" />
    <glyph glyph-name="Korea1.174" horiz-adv-x="910" 
d="M207 314l75 -126l-15 -17l-208 173l208 173l15 -17l-75 -127h496l-75 127l15 17l208 -173l-208 -173l-15 17l75 126h-496z" />
    <glyph glyph-name="Korea1.175" horiz-adv-x="910" 
d="M779 233v-38h-648v38h648zM779 429v-38h-648v38h648z" />
    <glyph glyph-name="Korea1.176" horiz-adv-x="910" 
d="M375 303l441 -288l-30 -49l-482 314v45l474 323l35 -47zM165 302l441 -290l-32 -50l-480 318v45l473 328l35 -49z" />
    <glyph glyph-name="Korea1.177" horiz-adv-x="910" 
d="M606 325v-45l-482 -314l-30 49l441 288l-438 298l35 47zM816 325v-45l-480 -318l-32 50l441 290l-437 302l35 49z" />
    <glyph glyph-name="Korea1.178" horiz-adv-x="550" 
d="M568 800l-231 -923h-51l-161 433l-73 -32l-17 41l126 52l129 -360q12 -34 17 -58h1q6 30 13 58l192 789h55z" />
    <glyph glyph-name="Korea1.179" horiz-adv-x="910" 
d="M829 316q0 -77 -52 -133t-130 -56q-61 0 -122 44l33 49q41 -31 89 -31q51 0 84.5 36.5t33.5 90.5q0 49 -33 87t-84 38q-52 0 -89 -33t-73 -101q-14 -28 -23 -43.5t-31 -45t-43.5 -46.5t-55.5 -30.5t-72 -13.5q-72 0 -126 50t-54 138q0 86 53 136.5t126 50.5q59 0 124 -42
l-32 -50q-49 28 -85 28q-54 0 -87.5 -34.5t-33.5 -88.5q0 -56 32 -90t88 -34q28 0 54 12t42 25.5t34.5 40.5t25 39.5l20.5 39.5q77 154 204 154q78 0 130.5 -55.5t52.5 -131.5z" />
    <glyph glyph-name="Korea1.180" horiz-adv-x="910" 
d="M301 192q95 0 158 123q-65 124 -158 124q-54 0 -87 -34.5t-33 -88.5q0 -57 31.5 -90.5t88.5 -33.5zM795 460l-34 -51q-48 32 -81 32q-51 0 -86.5 -30.5t-70.5 -95.5q34 -65 70 -95.5t87 -30.5q38 0 79 22l21 -56q-50 -28 -100 -28q-112 0 -190 127q-34 -57 -77 -91.5
t-113 -34.5q-74 0 -130 50t-56 138q0 86 55.5 136.5t129.5 50.5q68 0 112.5 -35.5t78.5 -92.5q74 128 190 128q56 0 115 -43z" />
    <glyph glyph-name="Korea1.181" horiz-adv-x="586" 
d="M49 505q0 24 16.5 40.5t40.5 16.5q23 0 40 -16.5t17 -40.5t-16.5 -40t-40.5 -16t-40.5 16t-16.5 40zM429 505q0 24 16.5 40.5t40.5 16.5q23 0 40 -16.5t17 -40.5t-16.5 -40t-40.5 -16t-40.5 16t-16.5 40zM239 110q0 24 16.5 41t40.5 17q23 0 40 -17.5t17 -40.5t-17 -39.5
t-40 -16.5q-24 0 -40.5 16.5t-16.5 39.5z" />
    <glyph glyph-name="Korea1.182" horiz-adv-x="303" 
d="M292 784l-11 -48q-16 4 -28 4q-29 0 -46 -20q-29 -36 -29 -158q0 -72 5.5 -239t5.5 -240q0 -133 -47 -189q-32 -40 -84 -40q-33 0 -49 10l10 47q22 -5 35 -5q26 0 45 20q30 39 30 158q0 73 -5.5 242.5t-5.5 239.5q0 137 52 190q32 35 81 35q25 0 41 -7z" />
    <glyph glyph-name="Korea1.183" horiz-adv-x="521" 
d="M292 784l-11 -48q-16 4 -28 4q-29 0 -46 -20q-29 -36 -29 -158q0 -72 5.5 -239t5.5 -240q0 -133 -47 -189q-32 -40 -84 -40q-33 0 -49 10l10 47q22 -5 35 -5q26 0 45 20q30 39 30 158q0 73 -5.5 242.5t-5.5 239.5q0 137 52 190q32 35 81 35q25 0 41 -7zM510 784l-11 -48
q-16 4 -28 4q-29 0 -46 -20q-29 -36 -29 -158q0 -72 5.5 -239t5.5 -240q0 -133 -47 -189q-32 -40 -84 -40q-33 0 -49 10l10 47q23 -5 35 -5q26 0 45 20q30 39 30 158q0 73 -5.5 242.5t-5.5 239.5q0 137 52 190q32 35 81 35q25 0 41 -7z" />
    <glyph glyph-name="Korea1.184" horiz-adv-x="910" 
d="M795 358v-60h-617q9 -72 61.5 -114t153.5 -42h404v-60h-399q-141 0 -213.5 69t-72.5 178q0 103 70 168t211 65h404v-60h-404q-100 0 -152 -39.5t-62 -104.5h616z" />
    <glyph glyph-name="Korea1.185" horiz-adv-x="910" 
d="M114 298v60h615q-10 65 -61.5 104.5t-151.5 39.5h-404v60h404q141 0 211 -65t70 -168q0 -109 -72.5 -178t-213.5 -69h-399v60h404q101 0 153.5 42t60.5 114h-616z" />
    <glyph glyph-name="Korea1.186" horiz-adv-x="910" 
d="M797 622v-60h-404q-112 0 -164 -45.5t-52 -120.5q0 -81 52.5 -127.5t163.5 -46.5h404v-60h-399q-142 0 -214 65.5t-72 171.5q0 100 70 161.5t211 61.5h404zM795 62v-60h-646v60h646z" />
    <glyph glyph-name="Korea1.187" horiz-adv-x="910" 
d="M112 562v60h404q141 0 211 -61.5t70 -161.5q0 -106 -72 -171.5t-214 -65.5h-399v60h404q111 0 163.5 46.5t52.5 127.5q0 75 -52 120.5t-164 45.5h-404zM114 2v60h646v-60h-646z" />
    <glyph glyph-name="Korea1.188" horiz-adv-x="910" 
d="M797 552v-60h-404q-112 0 -164 -49t-52 -127q0 -84 52.5 -134t163.5 -50h404v-60h-399q-141 0 -213.5 69t-72.5 178q0 103 70 168t211 65h404z" />
    <glyph glyph-name="Korea1.189" horiz-adv-x="910" 
d="M112 502v60h404q141 0 211 -65t70 -168q0 -109 -72.5 -178t-213.5 -69h-399v60h404q111 0 163.5 50t52.5 134q0 78 -52 127t-164 49h-404z" />
    <glyph glyph-name="Korea1.190" horiz-adv-x="910" 
d="M211 635h64v-404q0 -112 49 -166t127 -54q84 0 134 54.5t50 165.5v404h64v-399q0 -141 -70.5 -213.5t-180.5 -72.5q-104 0 -170.5 70t-66.5 211v404z" />
    <glyph glyph-name="Korea1.191" horiz-adv-x="910" 
d="M455 635q109 0 176 -72t67 -214v-399h-64v404q0 112 -48.5 167.5t-130.5 55.5t-130.5 -55.5t-48.5 -167.5v-404h-64v399q0 142 67 214t176 72z" />
    <glyph glyph-name="Korea1.192" horiz-adv-x="910" 
d="M482 591l294 -569l-54 -26l-267 514l-267 -514l-54 26l294 569h54z" />
    <glyph glyph-name="Korea1.193" horiz-adv-x="910" 
d="M722 598l54 -27l-294 -568h-54l-294 568l54 27l267 -515z" />
    <glyph glyph-name="Korea1.194" horiz-adv-x="910" 
d="M883 158v-313h-59v256h-797v57h856z" />
    <glyph glyph-name="Korea1.195" horiz-adv-x="910" 
d="M649 557l256 -257l-256 -258l-33 32l115 114h-726v44h769l69 68l-69 69h-769v44h725l-114 112z" />
    <glyph glyph-name="Korea1.196" horiz-adv-x="910" 
d="M650 557l256 -257l-256 -258l-33 32l115 114h-555l115 -114l-33 -32l-256 258l256 257l33 -32l-114 -112h553l-114 112zM775 232l69 68l-69 69h-641l-69 -69l69 -68h641z" />
    <glyph glyph-name="Korea1.197" horiz-adv-x="910" 
d="M415 -26l-267 721h75l80 -224h305l82 224h72l-268 -721h-79zM455 36q24 84 59 179l71 195h-260l70 -195q30 -81 60 -179z" />
    <glyph glyph-name="Korea1.198" horiz-adv-x="910" 
d="M241 695h434v-721h-441v62h371v277h-343v62h343v258h-364v62z" />
    <glyph glyph-name="Korea1.199" horiz-adv-x="600" 
d="M270 568h-64l105 141h83z" />
    <glyph glyph-name="Korea1.200" horiz-adv-x="600" 
d="M156 586q6 46 30.5 70t56.5 24q25 0 62 -19.5t52 -19.5q33 0 41 40h46q-5 -45 -30 -69.5t-57 -24.5q-25 0 -62 19.5t-52 19.5q-32 0 -40 -40h-47z" />
    <glyph glyph-name="Korea1.201" horiz-adv-x="600" 
d="M431 702l-102 -139h-59l-101 139h55l77 -88l74 88h56z" />
    <glyph glyph-name="Korea1.202" horiz-adv-x="600" 
d="M300 565q-56 0 -91.5 34t-38.5 89h52q10 -72 78 -72t78 72h52q-2 -55 -38 -89t-92 -34z" />
    <glyph glyph-name="Korea1.203" horiz-adv-x="600" 
d="M166 568l53 141h72l-68 -141h-57zM310 568l53 141h72l-68 -141h-57z" />
    <glyph glyph-name="Korea1.204" horiz-adv-x="910" 
d="M455 556q-40 0 -66.5 26.5t-26.5 64.5q0 36 26.5 62.5t66.5 26.5t66.5 -26.5t26.5 -62.5q0 -37 -26.5 -64t-66.5 -27zM455 594q22 0 35.5 14.5t13.5 38.5q0 22 -13.5 36t-35.5 14q-23 0 -36.5 -14t-13.5 -36q0 -24 13.5 -38.5t36.5 -14.5z" />
    <glyph glyph-name="Korea1.205" horiz-adv-x="600" 
d="M265 595v73h69v-73h-69z" />
    <glyph glyph-name="Korea1.206" horiz-adv-x="600" 
d="M216 -197v44q61 5 85.5 13.5t24.5 28.5t-20 27t-68 7v85h48v-46q98 -5 98 -67q0 -44 -38 -65t-130 -27z" />
    <glyph glyph-name="Korea1.207" horiz-adv-x="600" 
d="M325 -196q-102 0 -102 74q0 26 15.5 50t30.5 35.5t40 27.5h56q-28 -22 -42 -34.5t-26.5 -31.5t-12.5 -38q0 -23 13 -30t43 -7q22 0 36 6v-43q-27 -9 -51 -9z" />
    <glyph glyph-name="Korea1.208" horiz-adv-x="280" 
d="M188 714v-98h-96v98h96zM111 512h58l12 -566h-82z" />
    <glyph glyph-name="Korea1.209" horiz-adv-x="520" 
d="M323 706v-98h-96v98h96zM241 511h68v-47q0 -48 -19.5 -80.5t-77.5 -89.5q-4 -4 -19.5 -18.5t-20.5 -20l-16.5 -18t-16 -21t-10.5 -21t-8.5 -25.5t-2.5 -27v-16q0 -54 37 -85.5t99 -31.5q100 0 166 76l45 -46q-32 -39 -85.5 -66.5t-123.5 -27.5q-98 0 -154 48.5t-56 131.5
v17q0 24 6 46t12.5 36.5t23.5 35t25 28.5t32 30t30 28q37 35 51.5 59.5t14.5 60.5v44z" />
    <glyph glyph-name="Korea1.210" horiz-adv-x="910" 
d="M454 168l85 -94h-168zM371 545h168l-85 -95z" />
    <glyph glyph-name="Korea1.211" horiz-adv-x="910" 
d="M664 649l-47 -21q-18 40 -50 40q-22 0 -42 -59.5t-32 -164.5q57 -6 92 -44.5t30 -100.5q-5 -60 -45 -98t-96 -46q-14 -110 -43 -181q-35 -86 -93 -86q-61 0 -92 59l44 26q20 -41 51 -41q23 0 43.5 60t30.5 164q-53 9 -85 46.5t-27 96.5q5 57 41.5 94t88.5 48
q14 112 44 185q35 86 93 86q62 0 94 -63zM566 299q4 43 -17 75t-59 40q-4 -52 -6 -114q-2 -67 -7 -115q37 9 61 39.5t28 74.5zM430 410q-70 -26 -78 -111q-4 -43 14 -73t52 -40q4 52 6 114q1 57 6 110z" />
    <glyph glyph-name="Korea1.212" horiz-adv-x="579" 
d="M83 695h434v-62h-344l207 -301l-211 -296h355v-62h-441v50l217 307l-217 317v47z" />
    <glyph glyph-name="Korea1.213" horiz-adv-x="637" 
d="M491 634v-660h-70v660h-205v-660h-70v660h-116v61h577v-61h-116z" />
    <glyph glyph-name="Korea1.214" horiz-adv-x="910" 
d="M684 314q0 97 -69 166t-166 69q-98 0 -166.5 -68.5t-68.5 -166.5t68.5 -166.5t166.5 -68.5q97 0 166 69t69 166zM765 618l37 -41l-113 -100q49 -73 49 -163q0 -96 -58 -173l121 -108l-36 -41l-121 109q-86 -77 -195 -77q-108 0 -188 70l-117 -102l-36 41l115 101
q-64 80 -64 180q0 91 53 168l-105 95l38 41l104 -94q83 80 200 80q116 0 205 -87z" />
    <glyph glyph-name="Korea1.215" horiz-adv-x="800" 
d="M383 -26h-70v721h428v-62h-358v-276h337v-62h-337v-321zM249 622q0 -38 -26.5 -64t-68.5 -26t-68.5 26t-26.5 64t26.5 64t68.5 26t68.5 -26t26.5 -64zM105 622q0 -23 13.5 -37.5t35.5 -14.5t35.5 14.5t13.5 37.5t-13.5 37.5t-35.5 14.5t-35.5 -14.5t-13.5 -37.5z" />
    <glyph glyph-name="Korea1.216" horiz-adv-x="1231" 
d="M251 -25h-64l431 720h63zM644 343q73 0 114 -43.5t41 -122.5v-45q0 -79 -41 -122.5t-114 -43.5t-114 43.5t-41 122.5v45q0 79 41 122.5t114 43.5zM644 17q97 0 97 117v41q0 117 -97 117t-97 -117v-41q0 -117 97 -117zM225 703q73 0 114 -43.5t41 -122.5v-45
q0 -79 -41 -122.5t-114 -43.5t-114 43.5t-41 122.5v45q0 79 41 122.5t114 43.5zM225 377q97 0 97 117v41q0 117 -97 117t-97 -117v-41q0 -117 97 -117zM1006 343q73 0 114 -43.5t41 -122.5v-45q0 -79 -41 -122.5t-114 -43.5t-114 43.5t-41 122.5v45q0 79 41 122.5t114 43.5z
M1006 17q97 0 97 117v41q0 117 -97 117t-97 -117v-41q0 -117 97 -117z" />
    <glyph glyph-name="Korea1.217" horiz-adv-x="910" 
d="M209 300l523 -327v656zM764 690v-778l-618 388z" />
    <glyph glyph-name="Korea1.218" horiz-adv-x="910" 
d="M764 690v-778l-618 388z" />
    <glyph glyph-name="Korea1.219" horiz-adv-x="910" 
d="M178 -27l523 327l-523 329v-656zM146 690l618 -390l-618 -388v778z" />
    <glyph glyph-name="Korea1.220" horiz-adv-x="910" 
d="M146 690l618 -390l-618 -388v778z" />
    <glyph glyph-name="Korea1.221" horiz-adv-x="910" 
d="M738 205q0 111 -283 452q-283 -341 -283 -452q0 -43 24 -79t71 -36q34 0 79 27.5t53 27.5q20 0 26 -10.5t4 -36.5q-4 -62 -33 -153q-4 -18 19 -19q24 -2 40 -2t40 2q23 1 19 19q-29 91 -33 153q-2 26 4 36.5t26 10.5q8 0 53 -27.5t79 -27.5q47 0 71 36t24 79zM782 201
q0 -66 -38.5 -108.5t-100.5 -42.5q-27 0 -52.5 10.5t-70.5 36.5q2 -39 17 -95t35 -93q9 -19 -14 -22q-45 -5 -103 -5q-56 0 -103 5q-23 3 -14 22q43 88 52 188q-45 -26 -70.5 -36.5t-52.5 -10.5q-62 0 -100.5 42.5t-38.5 108.5q0 97 181 335l146 185q177 -222 235 -309
q92 -139 92 -211z" />
    <glyph glyph-name="Korea1.222" horiz-adv-x="910" 
d="M782 201q0 -66 -38.5 -108.5t-100.5 -42.5q-27 0 -52.5 10.5t-70.5 36.5q2 -39 17 -95t35 -93q9 -19 -14 -22q-45 -5 -103 -5q-56 0 -103 5q-23 3 -14 22q43 88 52 188q-45 -26 -70.5 -36.5t-52.5 -10.5q-62 0 -100.5 42.5t-38.5 108.5q0 97 181 335l146 185
q177 -222 235 -309q92 -139 92 -211z" />
    <glyph glyph-name="Korea1.223" horiz-adv-x="910" 
d="M760 470q0 72 -39 116.5t-114 44.5q-76 0 -114 -125l-8 -25t-11 -18t-19 -9q-15 0 -23 13.5t-15 38.5q-15 50 -44 87.5t-70 37.5q-75 0 -114 -44.5t-39 -116.5q0 -56 28.5 -125t76.5 -138t97 -127.5t103 -114.5q54 56 103 114.5t97 127.5t76.5 138t28.5 125zM805 477
q0 -68 -33.5 -148.5t-89 -158t-111 -141.5t-116.5 -123q-61 59 -116.5 123t-111 141.5t-89 158t-33.5 148.5q0 83 51.5 139.5t125.5 56.5q132 0 173 -180q41 180 173 180q74 0 125.5 -56.5t51.5 -139.5z" />
    <glyph glyph-name="Korea1.224" horiz-adv-x="910" 
d="M805 477q0 -68 -33.5 -148.5t-89 -158t-111 -141.5t-116.5 -123q-61 59 -116.5 123t-111 141.5t-89 158t-33.5 148.5q0 83 51.5 139.5t125.5 56.5q132 0 173 -180q41 180 173 180q74 0 125.5 -56.5t51.5 -139.5z" />
    <glyph glyph-name="Korea1.225" horiz-adv-x="910" 
d="M809 212q0 54 -34 97t-87 43q-38 0 -87 -26t-64 -26q-24 0 -38 15t-14 40q0 16 11 31t26.5 29t31.5 30.5t27 44t11 62.5q0 56 -40.5 89t-96.5 33q-55 0 -96 -33t-41 -89q0 -35 11 -62.5t27 -44t31.5 -30.5t26.5 -29t11 -31q0 -25 -14 -40t-38 -15q-15 0 -64 26t-87 26
q-53 0 -87 -43t-34 -97q0 -58 34.5 -100.5t91.5 -42.5q35 0 65 14.5t47 32.5t36 32.5t33 14.5q11 0 14 -5.5t3 -17.5q0 -22 -15.5 -85.5t-15.5 -119.5q0 -12 13 -13q23 -3 48 -3t48 3q13 1 13 13q0 56 -15.5 119.5t-15.5 85.5q0 12 3 17.5t14 5.5q14 0 32.5 -14.5t36 -32.5
t48 -32.5t64.5 -14.5q57 0 91.5 42.5t34.5 100.5zM854 211q0 -76 -47.5 -131t-122.5 -55q-85 0 -160 82q39 -92 39 -203q0 -14 -18 -16q-33 -3 -90 -3t-90 3q-18 2 -18 16q0 53 11.5 110.5t27.5 92.5q-75 -82 -160 -82q-75 0 -122.5 55t-47.5 131q0 72 47.5 125.5
t117.5 53.5q46 0 122 -37q22 -10 29 3q8 13 -8 29q-50 44 -70 79.5t-20 87.5q0 72 53.5 117t127.5 45t127.5 -45t53.5 -117q0 -52 -20 -87.5t-70 -79.5q-16 -16 -8 -29q7 -13 29 -3q76 37 122 37q70 0 117.5 -53.5t47.5 -125.5z" />
    <glyph glyph-name="Korea1.226" horiz-adv-x="910" 
d="M854 211q0 -76 -47.5 -131t-122.5 -55q-85 0 -160 82q39 -92 39 -203q0 -14 -18 -16q-33 -3 -90 -3t-90 3q-18 2 -18 16q0 53 11.5 110.5t27.5 92.5q-75 -82 -160 -82q-75 0 -122.5 55t-47.5 131q0 72 47.5 125.5t117.5 53.5q46 0 122 -37q22 -10 29 3q8 13 -8 29
q-50 44 -70 79.5t-20 87.5q0 72 53.5 117t127.5 45t127.5 -45t53.5 -117q0 -52 -20 -87.5t-70 -79.5q-16 -16 -8 -29q7 -13 29 -3q76 37 122 37q70 0 117.5 -53.5t47.5 -125.5z" />
    <glyph glyph-name="Korea1.227" horiz-adv-x="910" 
d="M610 299q0 -65 -45 -110t-110 -45q-63 0 -109 45.5t-46 109.5t46 109.5t109 45.5q65 0 110 -45t45 -110zM806 299q0 144 -103.5 247.5t-247.5 103.5t-247 -103.5t-103 -247.5t103 -247t247 -103t247.5 103t103.5 247zM845 299q0 -162 -114 -276t-276 -114
q-160 0 -275 114.5t-115 275.5t115 275.5t275 114.5q162 0 276 -114t114 -276z" />
    <glyph glyph-name="Korea1.228" horiz-adv-x="910" 
d="M455 565l268 -268l-268 -268l-269 268zM454 -87l385 385l-384 383l-385 -384zM455 732l434 -434l-435 -434l-433 433z" />
    <glyph glyph-name="Korea1.229" horiz-adv-x="910" 
d="M685 527v-460h-460v460h460zM121 -36h668v667h-668v-667zM827 669v-743h-744v743h744z" />
    <glyph glyph-name="Korea1.230" horiz-adv-x="910" 
d="M806 299q0 144 -103.5 247.5t-247.5 103.5v-701q144 0 247.5 103t103.5 247zM845 299q0 -162 -114 -276t-276 -114q-160 0 -275 114.5t-115 275.5t115 275.5t275 114.5q162 0 276 -114t114 -276z" />
    <glyph glyph-name="Korea1.231" horiz-adv-x="910" 
d="M455 -51v701q-144 0 -247.5 -103.5t-103.5 -247.5t103.5 -247t247.5 -103zM845 299q0 -161 -115 -275.5t-275 -114.5q-162 0 -276 114t-114 276t114 276t276 114q160 0 275 -114.5t115 -275.5z" />
    <glyph glyph-name="Korea1.232" horiz-adv-x="910" 
d="M199 19q0 -26 -24 -26q-11 0 -18.5 7.5t-7.5 18.5t7.5 18t18.5 7q24 0 24 -25zM293 19q0 -11 -7.5 -18.5t-17.5 -7.5q-11 0 -18.5 7.5t-7.5 18.5t7.5 18t18.5 7q10 0 17.5 -7t7.5 -18zM199 113q0 -26 -24 -26q-11 0 -18.5 7.5t-7.5 18.5q0 10 7.5 17t18.5 7t17.5 -7
t6.5 -17zM293 113q0 -11 -7.5 -18.5t-17.5 -7.5q-11 0 -18.5 7.5t-7.5 18.5q0 10 7.5 17t18.5 7q10 0 17.5 -7t7.5 -17zM387 19q0 -11 -7.5 -18.5t-18.5 -7.5t-18 7.5t-7 18.5q0 25 25 25q11 0 18.5 -7t7.5 -18zM199 206q0 -26 -24 -26q-11 0 -18.5 7.5t-7.5 18.5t7.5 18.5
t18.5 7.5q24 0 24 -26zM387 113q0 -11 -7.5 -18.5t-18.5 -7.5t-18 7.5t-7 18.5q0 10 7 17t18 7t18.5 -7t7.5 -17zM293 206q0 -11 -7.5 -18.5t-17.5 -7.5q-11 0 -18.5 7.5t-7.5 18.5t7.5 18.5t18.5 7.5q10 0 17.5 -7.5t7.5 -18.5zM480 19q0 -11 -7 -18.5t-18 -7.5
q-10 0 -17.5 7.5t-7.5 18.5t7.5 18t17.5 7q25 0 25 -25zM199 300q0 -10 -6.5 -17.5t-17.5 -7.5t-18.5 7.5t-7.5 17.5q0 11 7.5 18t18.5 7q24 0 24 -25zM480 113q0 -11 -7 -18.5t-18 -7.5q-10 0 -17.5 7.5t-7.5 18.5q0 10 7.5 17t17.5 7q11 0 18 -7t7 -17zM387 206
q0 -11 -7.5 -18.5t-18.5 -7.5t-18 7.5t-7 18.5t7 18.5t18 7.5t18.5 -7.5t7.5 -18.5zM293 300q0 -10 -7.5 -17.5t-17.5 -7.5q-11 0 -18.5 7.5t-7.5 17.5q0 11 7.5 18t18.5 7q10 0 17.5 -7t7.5 -18zM575 19q0 -11 -7.5 -18.5t-18.5 -7.5t-18.5 7.5t-7.5 18.5t7.5 18t18.5 7
t18.5 -7t7.5 -18zM199 394q0 -26 -24 -26q-11 0 -18.5 7.5t-7.5 18.5t7.5 18.5t18.5 7.5q24 0 24 -26zM575 113q0 -11 -7.5 -18.5t-18.5 -7.5t-18.5 7.5t-7.5 18.5q0 10 7.5 17t18.5 7t18.5 -7t7.5 -17zM480 206q0 -11 -7 -18.5t-18 -7.5q-10 0 -17.5 7.5t-7.5 18.5
t7.5 18.5t17.5 7.5q11 0 18 -7.5t7 -18.5zM387 300q0 -10 -7.5 -17.5t-18.5 -7.5t-18 7.5t-7 17.5q0 25 25 25q11 0 18.5 -7t7.5 -18zM293 394q0 -11 -7.5 -18.5t-17.5 -7.5q-11 0 -18.5 7.5t-7.5 18.5t7.5 18.5t18.5 7.5q10 0 17.5 -7.5t7.5 -18.5zM668 19q0 -11 -7 -18.5
t-18 -7.5t-18 7.5t-7 18.5q0 25 25 25t25 -25zM199 487q0 -10 -6.5 -17t-17.5 -7t-18.5 7t-7.5 17q0 11 7.5 18.5t18.5 7.5q24 0 24 -26zM762 19q0 -11 -7.5 -18.5t-18.5 -7.5t-18 7.5t-7 18.5q0 25 25 25q11 0 18.5 -7t7.5 -18zM668 113q0 -11 -7 -18.5t-18 -7.5t-18 7.5
t-7 18.5q0 10 7 17t18 7t18 -7t7 -17zM575 206q0 -11 -7.5 -18.5t-18.5 -7.5t-18.5 7.5t-7.5 18.5t7.5 18.5t18.5 7.5t18.5 -7.5t7.5 -18.5zM480 300q0 -10 -7 -17.5t-18 -7.5q-10 0 -17.5 7.5t-7.5 17.5q0 11 7.5 18t17.5 7q25 0 25 -25zM387 394q0 -11 -7.5 -18.5
t-18.5 -7.5t-18 7.5t-7 18.5t7 18.5t18 7.5t18.5 -7.5t7.5 -18.5zM293 487q0 -10 -7.5 -17t-17.5 -7q-11 0 -18.5 7t-7.5 17q0 11 7.5 18.5t18.5 7.5q10 0 17.5 -7.5t7.5 -18.5zM199 581q0 -25 -24 -25q-11 0 -18.5 7t-7.5 18t7.5 18.5t18.5 7.5q24 0 24 -26zM762 113
q0 -11 -7.5 -18.5t-18.5 -7.5t-18 7.5t-7 18.5q0 10 7 17t18 7t18.5 -7t7.5 -17zM293 581q0 -11 -7.5 -18t-17.5 -7q-11 0 -18.5 7t-7.5 18t7.5 18.5t18.5 7.5q10 0 17.5 -7.5t7.5 -18.5zM668 206q0 -11 -7 -18.5t-18 -7.5t-18 7.5t-7 18.5t7 18.5t18 7.5t18 -7.5t7 -18.5z
M575 300q0 -10 -7.5 -17.5t-18.5 -7.5t-18.5 7.5t-7.5 17.5q0 11 7.5 18t18.5 7t18.5 -7t7.5 -18zM480 394q0 -11 -7 -18.5t-18 -7.5q-10 0 -17.5 7.5t-7.5 18.5t7.5 18.5t17.5 7.5q11 0 18 -7.5t7 -18.5zM387 487q0 -10 -7.5 -17t-18.5 -7t-18 7t-7 17q0 11 7 18.5t18 7.5
t18.5 -7.5t7.5 -18.5zM762 206q0 -11 -7.5 -18.5t-18.5 -7.5t-18 7.5t-7 18.5t7 18.5t18 7.5t18.5 -7.5t7.5 -18.5zM387 581q0 -11 -7.5 -18t-18.5 -7q-25 0 -25 25q0 11 7 18.5t18 7.5t18.5 -7.5t7.5 -18.5zM668 300q0 -10 -7 -17.5t-18 -7.5t-18 7.5t-7 17.5q0 25 25 25
t25 -25zM575 394q0 -11 -7.5 -18.5t-18.5 -7.5t-18.5 7.5t-7.5 18.5t7.5 18.5t18.5 7.5t18.5 -7.5t7.5 -18.5zM480 487q0 -10 -7 -17t-18 -7q-10 0 -17.5 7t-7.5 17q0 11 7.5 18.5t17.5 7.5q11 0 18 -7.5t7 -18.5zM762 300q0 -10 -7.5 -17.5t-18.5 -7.5t-18 7.5t-7 17.5
q0 25 25 25q11 0 18.5 -7t7.5 -18zM480 581q0 -25 -25 -25q-10 0 -17.5 7t-7.5 18t7.5 18.5t17.5 7.5q11 0 18 -7.5t7 -18.5zM668 394q0 -11 -7 -18.5t-18 -7.5t-18 7.5t-7 18.5t7 18.5t18 7.5t18 -7.5t7 -18.5zM575 487q0 -10 -7.5 -17t-18.5 -7t-18.5 7t-7.5 17
q0 11 7.5 18.5t18.5 7.5t18.5 -7.5t7.5 -18.5zM762 394q0 -11 -7.5 -18.5t-18.5 -7.5t-18 7.5t-7 18.5t7 18.5t18 7.5t18.5 -7.5t7.5 -18.5zM575 581q0 -11 -7.5 -18t-18.5 -7t-18.5 7t-7.5 18t7.5 18.5t18.5 7.5t18.5 -7.5t7.5 -18.5zM668 487q0 -10 -7 -17t-18 -7t-18 7
t-7 17q0 11 7 18.5t18 7.5t18 -7.5t7 -18.5zM762 487q0 -10 -7.5 -17t-18.5 -7t-18 7t-7 17q0 11 7 18.5t18 7.5t18.5 -7.5t7.5 -18.5zM668 581q0 -25 -25 -25t-25 25q0 11 7 18.5t18 7.5t18 -7.5t7 -18.5zM762 581q0 -11 -7.5 -18t-18.5 -7q-25 0 -25 25q0 11 7 18.5
t18 7.5t18.5 -7.5t7.5 -18.5zM116 -41h678v677h-678v-677zM827 669v-743h-744v743h744z" />
    <glyph glyph-name="Korea1.233" horiz-adv-x="910" 
d="M116 -41h678v67h-678v-67zM116 58h678v68h-678v-68zM116 158h678v72h-678v-72zM116 262h678v71h-678v-71zM116 365h678v66h-678v-66zM116 463h678v73h-678v-73zM116 568h678v68h-678v-68zM827 669v-743h-744v743h744z" />
    <glyph glyph-name="Korea1.234" horiz-adv-x="910" 
d="M116 -41h68v677h-68v-677zM216 -41h73v677h-73v-677zM321 -41h66v677h-66v-677zM419 -41h71v677h-71v-677zM522 -41h72v677h-72v-677zM626 -41h68v677h-68v-677zM726 -41h68v677h-68v-677zM827 669v-743h-744v743h744z" />
    <glyph glyph-name="Korea1.235" horiz-adv-x="910" 
d="M116 -17l653 653h-117l-536 -535v-118zM116 149l488 487h-118l-370 -369v-118zM116 315l322 321h-119l-203 -202v-119zM116 482l155 154h-155v-154zM638 -41h156v156zM590 -41l204 204v118l-322 -322h118zM424 -41l370 370v118l-488 -488h118zM258 -41l536 536v118
l-654 -654h118zM827 669v-743h-744v743h744z" />
    <glyph glyph-name="Korea1.236" horiz-adv-x="910" 
d="M116 -41h156l-156 156v-156zM320 -41h118l-322 322v-118zM486 -41h118l-488 488v-118zM652 -41h118l-654 654v-118zM141 636l653 -653v118l-536 535h-117zM306 636l488 -487v118l-370 369h-118zM472 636l322 -321v119l-203 202h-119zM639 636l155 -154v154h-155zM827 669
v-743h-744v743h744z" />
    <glyph glyph-name="Korea1.237" horiz-adv-x="910" 
d="M116 -41h71v71h-71v-71zM116 60h71v71h-71v-71zM217 -41h71v71h-71v-71zM217 60h71v71h-71v-71zM116 161h71v71h-71v-71zM318 -41h71v71h-71v-71zM318 60h71v71h-71v-71zM217 161h71v71h-71v-71zM116 262h71v71h-71v-71zM419 -41h71v71h-71v-71zM419 60h71v71h-71v-71z
M318 161h71v71h-71v-71zM217 262h71v71h-71v-71zM116 363h71v71h-71v-71zM520 -41h71v71h-71v-71zM520 60h71v71h-71v-71zM419 161h71v71h-71v-71zM318 262h71v71h-71v-71zM217 363h71v71h-71v-71zM116 464h71v71h-71v-71zM621 -41h71v71h-71v-71zM621 60h71v71h-71v-71z
M520 161h71v71h-71v-71zM419 262h71v71h-71v-71zM318 363h71v71h-71v-71zM217 464h71v71h-71v-71zM116 565h71v71h-71v-71zM723 -41h71v71h-71v-71zM621 161h71v71h-71v-71zM520 262h71v71h-71v-71zM419 363h71v71h-71v-71zM318 464h71v71h-71v-71zM217 565h71v71h-71v-71z
M723 60h71v71h-71v-71zM621 262h71v71h-71v-71zM520 363h71v71h-71v-71zM419 464h71v71h-71v-71zM318 565h71v71h-71v-71zM723 161h71v71h-71v-71zM621 363h71v71h-71v-71zM520 464h71v71h-71v-71zM419 565h71v71h-71v-71zM723 262h71v71h-71v-71zM621 464h71v71h-71v-71z
M520 565h71v71h-71v-71zM723 363h71v71h-71v-71zM621 565h71v71h-71v-71zM723 464h71v71h-71v-71zM723 565h71v71h-71v-71zM827 669v-743h-744v743h744z" />
    <glyph glyph-name="Korea1.238" horiz-adv-x="910" 
d="M137 -41h135l-68 68zM116 -13l64 64l-64 64v-128zM296 -17l58 60l-67 67l-59 -59zM204 75l59 59l-64 64l-59 -59zM319 -41h119l-59 59zM116 164l59 58l-59 59v-117zM462 -17l59 59l-59 59l-59 -59zM378 66l60 59l-67 68l-60 -59zM287 158l59 59l-64 64l-59 -59zM199 246
l59 59l-59 59l-59 -59zM116 329l59 59l-59 59v-118zM486 -41h118l-59 59zM628 -17l59 59l-59 59l-59 -59zM545 66l59 59l-59 59l-59 -59zM371 241l58 58l-64 65l-59 -59zM282 329l59 59l-59 59l-59 -59zM199 412l59 59l-59 59l-59 -59zM461 150l60 58l-67 68l-59 -60z
M116 495l59 59l-59 59v-118zM652 -41h118l-59 59zM735 42l59 -59v118zM199 578l59 58h-117zM366 411l58 59l-60 59l-58 -58zM711 66l59 59l-59 59l-59 -59zM628 149l59 59l-60 59l-58 -58zM454 323l58 59l-64 64l-58 -59zM282 495l59 58l-60 60l-58 -59zM544 233l60 58
l-68 67l-58 -59zM735 208l59 -59v118zM365 577l59 59h-118zM711 232l59 59l-60 59l-59 -59zM627 315l59 60l-66 66l-59 -59zM537 406l59 59l-65 63l-59 -58zM448 494l60 59l-60 59l-59 -59zM734 374l60 -60v120zM532 576l60 60h-120zM620 488l59 60l-64 64l-60 -59zM710 398
l60 60l-66 67l-61 -60zM703 572l65 64h-129zM727 548l67 -66v133zM827 669v-743h-744v743h744z" />
    <glyph glyph-name="Korea1.239" horiz-adv-x="910" 
d="M853 101q0 -90 -116 -149.5t-277 -59.5q-163 0 -283.5 52t-120.5 130q0 37 23.5 69.5t61.5 53.5t66 33t57 20q12 4 13 -5t-11 -13q-137 -62 -137 -138q0 -48 100.5 -75t231.5 -27q127 0 229 34.5t102 88.5q0 37 -39 68t-76 42q-12 4 -9 11t13 5q17 -2 43.5 -12
t56.5 -26.5t51 -43.5t21 -58zM383 261q5 -49 -55 -165q-22 -42 -24 -62q0 -5 -3 -7.5t-7 -0.5t-7 8q-20 43 -1 97q9 23 15.5 56t6 79t-14.5 79q-49 118 22 250q16 28 23 60q1 5 4 7t5.5 0t4.5 -6q18 -52 -10 -150q-9 -33 14 -120.5t27 -124.5zM525 286q0 -16 1 -27t-5 -30
t-10 -30.5t-12.5 -30l-13 -28t-12.5 -24t-10 -19.5q-28 -53 -30 -73q0 -4 -2.5 -6.5t-5 -2t-5.5 2.5t-4 5q-22 51 8 123q18 42 19 92.5t-5.5 79t-14.5 45.5q-11 25 -17.5 48.5t-6 45t1 36t7.5 34.5t10.5 28t13.5 28l12 24q23 47 23 93q0 7 2.5 9.5t6.5 0t6 -7.5
q12 -28 15 -68.5t-12 -95.5q-10 -28 -11 -53t4.5 -48.5t13.5 -44t18 -50t15 -56.5zM657 298q4 -45 -7.5 -80.5t-37 -74.5l-27.5 -42q-19 -37 -28 -73q-3 -6 -7 -7t-7 7q-7 13 -6 45t10 54q58 145 26 221q-21 48 -25.5 91t2 72.5t23.5 69.5q13 33 13 69q0 10 4.5 11.5
t9.5 -9.5q26 -49 12 -143q-7 -51 16.5 -110.5t28.5 -100.5z" />
    <glyph glyph-name="Korea1.240" horiz-adv-x="910" 
d="M602 208q0 61 -43 104t-104 43t-104 -43t-43 -104t43 -103.5t104 -42.5t104 42.5t43 103.5zM625 208q0 -70 -50 -120t-120 -50t-120 50t-50 120t50 120t120 50t120 -50t50 -120zM122 0h666q4 0 6 13t-2.5 29t-14.5 22q0 34 -10.5 75.5t-34.5 64.5q-68 65 -83 86
q-14 19 -23 43q-33 91 -26 171h-47v-84h-196v84h-47q7 -80 -26 -171q-12 -31 -30 -53t-62 -63q-9 -8 -14 -13q-24 -23 -34.5 -64.5t-10.5 -75.5q-10 -6 -14.5 -22t-2.5 -29t6 -13zM852 338q10 2 12 29.5t-13.5 68t-49.5 68.5q-42 34 -151 58t-195 24q-104 0 -203 -23
t-143 -59q-35 -28 -50 -68.5t-12.5 -68t11.5 -29.5q36 -3 83 10t79 31q7 4 2 22.5l-10 38t2 40.5q18 45 132 45q18 0 46 -5q37 -8 63 -8t63 8q28 5 46 5q63 0 92 -11t40 -34q7 -16 2 -40.5t-10 -38t2 -22.5q29 -18 78 -31.5t84 -9.5zM377 439h156v65q-38 -10 -78 -10t-78 10
v-65zM878 328q-6 -10 -18.5 -13t-35 0t-36 6t-41.5 10q-79 23 -85 54q-3 11 7 40.5t9 38.5q-5 29 -55 37q-8 -63 11 -127q9 -33 24 -57.5t28.5 -38t39.5 -34.5q70 -59 70 -169q14 -5 19 -30t2 -50q-1 -16 -34 -16h-656q-33 0 -34 16q-3 25 2 50t19 30q0 110 70 169
q26 21 39.5 34.5t28.5 38t24 57.5q19 69 11 127q-50 -8 -55 -37q-2 -9 8.5 -39t7.5 -40q-6 -31 -85 -54q-28 -7 -41.5 -10t-36 -6t-35 0t-18.5 13q-14 18 -6 70.5t34 85.5q46 60 156 90.5t239 30.5t239 -30.5t156 -90.5q26 -33 34 -85.5t-6 -70.5z" />
    <glyph glyph-name="Korea1.241" horiz-adv-x="910" 
d="M602 208q0 61 -43 104t-104 43t-104 -43t-43 -104t43 -103.5t104 -42.5t104 42.5t43 103.5zM377 439h156v65q-38 -10 -78 -10t-78 10v-65zM878 328q-6 -10 -18.5 -13t-35 0t-36 6t-41.5 10q-79 23 -85 54q-3 11 7 40.5t9 38.5q-5 29 -55 37q-8 -63 11 -127
q9 -33 24 -57.5t28.5 -38t39.5 -34.5q70 -59 70 -169q14 -5 19 -30t2 -50q-1 -16 -34 -16h-656q-33 0 -34 16q-3 25 2 50t19 30q0 110 70 169q26 21 39.5 34.5t28.5 38t24 57.5q19 69 11 127q-50 -8 -55 -37q-2 -9 8.5 -39t7.5 -40q-6 -31 -85 -54q-28 -7 -41.5 -10t-36 -6
t-35 0t-18.5 13q-14 18 -6 70.5t34 85.5q46 60 156 90.5t239 30.5t239 -30.5t156 -90.5q26 -33 34 -85.5t-6 -70.5z" />
    <glyph glyph-name="Korea1.242" horiz-adv-x="910" 
d="M847 420v-236h-76v21h-29q-63 -38 -168 -55q-38 -5 -99 -5t-94 5q-49 8 -55 33q-4 20 15 32q-14 0 -25.5 9.5t-12.5 23.5q-1 18 11 30q-36 4 -36 33q0 22 19 31t63 9l-3 8q-101 3 -171 7q-81 4 -100 12q-24 10 -24 31q0 28 57 35q13 1 61 4q62 5 287 5h14q55 0 84.5 -2
t73 -15.5t73.5 -41.5q32 -8 60 -6v32h75zM752 217h20v154q-23 -2 -44 3l2 -8q2 -11 -1 -10q-1 0 -6 5q-19 23 -58 49q-28 18 -89.5 25t-95.5 2q-34 -4 -66 -24q-11 -6 -22 -27q-8 -17 -19 -24q-6 -8 6 -10q9 -1 25 5q11 4 22.5 14l17.5 15.5t8 2.5q6 -5 -4 -15q20 -8 41 -4
q11 3 21.5 8.5t15 7.5t5.5 0q4 -11 -14 -23q8 -11 29.5 -27t49.5 -25q22 -7 46 -10.5l35 -5t11 -6.5q-1 -6 -31.5 -4t-55.5 9q-67 22 -100 67q-6 -4 -23 -4q-21 1 -42 7l-15 -13q59 0 65 -25q7 -26 -11 -41q28 -7 31 -28q2 -20 -15 -32q29 -6 32 -28q1 -9 -2 -17t-6 -11.5
t-5 -4.5q14 -3 35 0q122 11 202 62q6 5 7 -1zM429 437q-68 0 -248 -4q-56 -2 -79 -6t-23 -18t19 -18.5t83 -8.5q153 -7 187 -8l21 32q17 23 40 31zM787 200h44v203h-44v-203zM490 247q1 14 -5.5 20t-22.5 8q-32 4 -119 0q-10 -1 -16.5 -8t-6.5 -17q0 -16 25 -20
q9 -2 60.5 -3t53.5 0q11 0 20.5 5t10.5 15zM507 194q-1 18 -31 18q-70 2 -113 -1q-22 -2 -18 -24q2 -15 18 -18q49 -10 114 -4q33 2 30 29zM467 316q0 16 -20 17q-88 5 -134 0q-21 -3 -19 -22q0 -7 5.5 -13t14.5 -6q77 -4 134 2q19 3 19 22z" />
    <glyph glyph-name="Korea1.243" horiz-adv-x="910" 
d="M847 409q0 -34 -72 -40q-4 0 -52 -3q-70 -4 -171 -7l-3 -8q44 0 63 -9t19 -31q0 -29 -36 -33q12 -12 11 -30q-1 -14 -12.5 -23.5t-25.5 -9.5q19 -12 15 -32q-6 -25 -55 -33q-33 -5 -94 -5t-99 5q-105 17 -168 55h-29v-21h-76v236h75v-32q28 -2 60 6q30 28 73.5 41.5
t73 15.5t84.5 2h14q225 0 287 -5q85 -5 103 -15q15 -9 15 -24zM536 362q-11 7 -19 24q-11 21 -22 27q-32 20 -66 24q-34 5 -95.5 -2t-89.5 -25q-39 -26 -58 -49q-4 -4 -5.5 -5t-2 1t0.5 9l2 8q-21 -5 -44 -3v-154h20l-2 8q-1 4 1 4t6 -3q80 -51 202 -62q20 -3 34 0
q-1 0 -4.5 3.5t-6.5 12t-1 17.5q3 22 32 28q-17 12 -15 32q5 21 31 28q-18 15 -11 41q8 25 65 25l-15 13q-21 -6 -42 -7q-17 0 -23 4q-33 -45 -100 -67q-25 -7 -55.5 -9t-31.5 4q0 5 11 6.5l35 5t46 10.5q28 9 49.5 25t29.5 27q-18 12 -14 23q1 2 5.5 0t15 -7.5t21.5 -8.5
q21 -4 41 4q-9 10 -4 15q2 3 8 -2.5l17.5 -15.5t22.5 -14q30 -12 32 0q1 3 -1 5zM830 409q0 14 -23 18t-79 6q-180 4 -248 4q23 -8 40 -31l21 -32q34 1 187 8q84 6 95 14q7 4 7 13zM78 200h44v203h-44v-203zM589 250q0 10 -6.5 17t-16.5 8q-87 4 -119 0q-16 -2 -22.5 -8
t-5.5 -20q1 -10 10.5 -15t20.5 -5q2 -1 53.5 0t60.5 3q25 4 25 20zM564 187q4 22 -18 24q-43 3 -113 1q-30 0 -31 -18q-3 -27 30 -29q65 -6 114 4q16 3 18 18zM615 311q2 19 -19 22q-46 5 -134 0q-20 -1 -20 -17q0 -19 19 -22q57 -6 134 -2q9 0 14.5 6t5.5 13z" />
    <glyph glyph-name="Korea1.244" horiz-adv-x="579" 
d="M291 -122v474h-55q-82 0 -140 47t-58 134q0 82 52.5 132.5t170.5 50.5h232v-838h-50v794h-101v-794h-51z" />
    <glyph glyph-name="Korea1.245" horiz-adv-x="494" 
d="M215 -91v522h-162v58h162v204h63v-204h163v-58h-163v-522h-63z" />
    <glyph glyph-name="Korea1.246" horiz-adv-x="494" 
d="M53 113v58h162v260h-162v58h162v204h63v-204h163v-58h-163v-260h163v-58h-163v-204h-63v204h-162z" />
    <glyph glyph-name="Korea1.247" horiz-adv-x="910" 
d="M611 478l-127 75v-418l127 74l17 -15l-173 -208l-173 208l17 15l127 -74v418l-127 -75l-17 15l173 208l173 -208z" />
    <glyph glyph-name="Korea1.248" horiz-adv-x="910" 
d="M142 -11l-41 42l581 581l-142 36l-1 23l269 25l-25 -269l-23 1l-36 142z" />
    <glyph glyph-name="Korea1.249" horiz-adv-x="910" 
d="M768 698l41 -41l-582 -581l142 -37l2 -23l-270 -25l25 270l23 -2l37 -142z" />
    <glyph glyph-name="Korea1.250" horiz-adv-x="910" 
d="M808 31l-41 -42l-582 581l-36 -142l-23 -1l-25 269l269 -25l-1 -23l-142 -36z" />
    <glyph glyph-name="Korea1.251" horiz-adv-x="910" 
d="M101 657l41 41l582 -581l37 142l23 2l25 -270l-270 25l2 23l142 37z" />
    <glyph glyph-name="Korea1.252" horiz-adv-x="517" 
d="M418 266q0 -65 -20.5 -116t-52.5 -82t-76 -52t-85 -30t-85 -11v665h63v-328q34 95 140 95q49 0 82.5 -39t33.5 -102zM342 229h1q0 54 -20 90.5t-52 36.5q-51 0 -80 -38t-29 -80v-214q32 2 61.5 14.5t57 35t44.5 63t17 92.5z" />
    <glyph glyph-name="Korea1.253" horiz-adv-x="388" 
d="M288 662v-547q0 -45 -7 -73t-28 -52q-30 -36 -69.5 -50t-69.5 13q-24 33 -6.5 72t57.5 63q37 22 85 29v545h38z" />
    <glyph glyph-name="Korea1.254" horiz-adv-x="539" 
d="M479 339q0 -65 -39 -125q-19 -29 -49 -58t-58 -45q-11 -7 -14.5 -1.5t4.5 13.5q99 96 99 193q0 25 -13.5 46.5t-29.5 34.5t-45 26.5t-44 18.5t-42 13v-340q0 -45 -7 -73t-28 -52q-30 -36 -69.5 -50t-69.5 13q-24 33 -6.5 72t57.5 63q37 22 85 29v500q0 40 9 40
q10 0 31 -24q34 -40 70 -71q86 -74 122.5 -125.5t36.5 -97.5z" />
    <glyph glyph-name="Korea1.255" horiz-adv-x="693" 
d="M251 412l347 74v58l-347 -74v-58zM638 645v-454q0 -63 -67 -119q-19 -16 -40 -25.5t-44 -7.5t-37 20q-15 24 -0.5 58t43.5 55q39 29 105 38v182l-347 -75v-223q0 -63 -67 -119q-19 -16 -40 -25.5t-44 -7.5t-37 20q-15 24 -0.5 58t43.5 55q39 29 105 38v446z" />
    <glyph glyph-name="Korea1.256" horiz-adv-x="910" 
d="M880 301q0 -178 -119.5 -301.5t-306.5 -123.5q-158 0 -269 92t-145 239l78 1q31 -119 118.5 -190t217.5 -71q151 0 248 95t105 238h-175v72h245q3 -26 3 -51zM853 442h-79q-42 99 -123 156t-197 57q-141 0 -234 -84.5t-115 -218.5h122v-72h-197v21q0 177 119.5 300.5
t304.5 123.5q145 0 247.5 -76t151.5 -207zM670 532l-178 -182l186 -267h-100l-141 210l-64 -65v-145h-80v449h80v-207l194 207h103z" />
    <glyph glyph-name="Korea1.257" horiz-adv-x="910" 
d="M97 324v-50q0 -256 137 -444h-62q-147 175 -147 449v40q0 272 147 447h62q-137 -185 -137 -442zM813 274v50q0 257 -137 442h62q147 -175 147 -447v-40q0 -274 -147 -449h-62q137 188 137 444zM234 596h441v-54h-189v-16q0 -41 40 -68.5t177 -84.5l-26 -52
q-202 84 -222 120q-20 -33 -224 -120l-26 52q136 57 176.5 85t40.5 68v16h-188v54zM159 267h591v-54h-264v-221h-63v221h-264v54z" />
    <glyph glyph-name="Korea1.258" horiz-adv-x="910" 
d="M78 -26v721h85l209 -539q15 -41 21 -92v631h67v-721h-85l-210 539q-17 47 -20 90v-629h-67zM682 511q80 0 122 -48.5t42 -137.5v-41q0 -89 -42 -137.5t-122 -48.5t-122 48.5t-42 137.5v41q0 89 42 137.5t122 48.5zM682 156q100 0 100 134v29q0 133 -100 133
q-51 0 -74.5 -32.5t-23.5 -100.5v-29q0 -134 98 -134zM540 -26v64h285v-64h-285z" />
    <glyph glyph-name="Korea1.259" horiz-adv-x="910" 
d="M258 706q98 0 170 -66l-40 -53q-58 53 -129 53q-150 0 -150 -254v-92q0 -136 36.5 -200t119.5 -64q75 0 131 65l45 -50q-26 -35 -71.5 -58.5t-105.5 -23.5q-121 0 -173.5 83.5t-52.5 247.5v89q0 323 220 323zM645 706q107 0 153 -80t46 -242v-99q0 -162 -46 -242
t-153 -80t-153 80t-46 242v99q0 163 45.5 242.5t153.5 79.5zM645 26q71 0 99.5 64.5t28.5 200.5v87q0 136 -28.5 200.5t-99.5 64.5t-99.5 -64.5t-28.5 -200.5v-87q0 -136 28.5 -200.5t99.5 -64.5zM833 -26v68h55v-68h-55z" />
    <glyph glyph-name="Korea1.260" horiz-adv-x="741" 
d="M333 369v326h79l93 -199h2l88 199h81v-326h-55v261h-3l-89 -196h-49l-93 196h-2v-261h-52zM130 369v276h-103v50h264v-50h-103v-276h-58z" />
    <glyph glyph-name="Korea1.261" horiz-adv-x="910" 
d="M257 374v-400h-53v50q-21 -57 -86 -57q-43 0 -71 36.5t-28 107.5v29q0 73 37.5 111.5t101.5 38.5h36v77q0 59 -13 80t-46 21q-37 0 -75 -37l-33 40q54 52 112 52q118 0 118 -149zM195 104v133h-39q-35 0 -54 -22.5t-19 -78.5v-18q0 -98 52 -98q30 0 45 25t15 59zM366 -26
v539h58v-56q27 66 89 66q68 0 91 -70q31 70 100 70q48 0 76 -33t28 -102v-414h-64v392q0 25 -1.5 39t-6.5 30.5t-17.5 24t-32.5 7.5q-67 0 -67 -99v-394h-64v401q0 49 -12 70.5t-46 21.5q-32 0 -49.5 -29.5t-17.5 -75.5v-388h-64zM833 -26v68h55v-68h-55zM287 -26v68h55v-68
h-55z" />
    <glyph glyph-name="Korea1.262" horiz-adv-x="910" 
d="M101 28v-268h-64v753h58v-56q8 30 31 48t53 18q58 0 83 -53t25 -168v-115q0 -125 -24 -173t-81 -48q-62 0 -81 62zM374 -26v539h58v-56q27 66 87 66q66 0 89 -70q31 70 98 70q102 0 102 -135v-414h-64v392q0 26 -1 39t-6 30t-17 24.5t-32 7.5q-65 0 -65 -99v-394h-64v401
q0 50 -11 71t-45 21q-32 0 -48.5 -29t-16.5 -76v-388h-64zM223 195v97q0 92 -12 133.5t-44 41.5q-40 0 -53 -35.5t-13 -97.5v-181q0 -53 16.5 -91t49.5 -38t44.5 33.5t11.5 137.5zM293 -26v68h55v-68h-55zM833 -26v68h55v-68h-55z" />
    <glyph glyph-name="Korea1.263" horiz-adv-x="1054" 
d="M402 513h288v-62h-218v-166h197v-62h-197v-187h225v-62h-295v539zM10 695h451v-62h-192v-659h-69v659h-190v62zM766 513h70v-477h208v-62h-278v539z" />
    <glyph glyph-name="Korea1.264" horiz-adv-x="910" 
d="M407 -54v98h96v-98h-96zM484 148h-58l-12 566h82z" />
    <glyph glyph-name="Korea1.265" horiz-adv-x="910" 
d="M412 488h-58l-10 242h78zM555 488h-58l-10 242h78z" />
    <glyph glyph-name="Korea1.266" horiz-adv-x="910" 
d="M571 255h110v-61h-118l-31 -220h-57l31 220h-142l-30 -220h-58l31 220h-109v61h117l23 164h-109v61h118l30 215h57l-30 -215h141l30 215h58l-31 -215h110v-61h-118zM514 255l23 164h-142l-23 -164h142z" />
    <glyph glyph-name="Korea1.267" horiz-adv-x="910" 
d="M430 -93v75q-128 6 -222 79l36 55q89 -66 186 -73v270q-113 26 -161 68.5t-48 109.5v22q0 76 56.5 122t152.5 52v64h55v-64q108 -7 187 -61l-34 -50q-61 42 -153 49v-256q120 -30 168 -72.5t48 -113.5v-22q0 -73 -57.5 -122t-158.5 -56v-76h-55zM632 181q0 43 -31.5 70.5
t-115.5 49.5v-257q69 7 108 39t39 78v20zM290 494q0 -41 30.5 -66t109.5 -46v243q-63 -5 -101.5 -35.5t-38.5 -78.5v-17z" />
    <glyph glyph-name="Korea1.268" horiz-adv-x="910" 
d="M271 -25h-64l431 720h63zM664 343q73 0 114 -43.5t41 -122.5v-45q0 -79 -41 -122.5t-114 -43.5t-114 43.5t-41 122.5v45q0 79 41 122.5t114 43.5zM664 17q97 0 97 117v41q0 117 -97 117t-97 -117v-41q0 -117 97 -117zM245 703q73 0 114 -43.5t41 -122.5v-45
q0 -79 -41 -122.5t-114 -43.5t-114 43.5t-41 122.5v45q0 79 41 122.5t114 43.5zM245 377q97 0 97 117v41q0 117 -97 117t-97 -117v-41q0 -117 97 -117z" />
    <glyph glyph-name="Korea1.269" horiz-adv-x="910" 
d="M664 347h65q0 -145 -70 -246l108 -127h-80l-68 80q-87 -91 -224 -91h-6q-95 0 -163 48t-68 129v24q0 67 41 113.5t146 99.5l-19 23l-37.5 45.5t-26.5 46t-15 59.5v18q0 53 46.5 95t126.5 42q76 0 124.5 -42.5t48.5 -94.5v-19q0 -51 -34.5 -96t-119.5 -94l178 -210
q47 80 47 197zM393 23q115 0 187 78l-195 229q-89 -47 -124.5 -82.5t-35.5 -87.5v-17q0 -49 48.5 -84.5t119.5 -35.5zM312 554q0 -8 1.5 -16t5.5 -17l7 -16t10.5 -18l11 -16t13 -17.5t12.5 -16l14.5 -17t12.5 -15.5q75 40 101.5 75.5t26.5 73.5v11q0 35 -31.5 59t-76.5 24
t-76.5 -24t-31.5 -59v-11z" />
    <glyph glyph-name="Korea1.270" horiz-adv-x="910" 
d="M484 488h-58l-10 242h78z" />
    <glyph glyph-name="Korea1.271" horiz-adv-x="910" 
d="M748 324v-50q0 -256 137 -444h-64q-147 175 -147 449v40q0 272 147 447h64q-137 -185 -137 -442z" />
    <glyph glyph-name="Korea1.272" horiz-adv-x="910" 
d="M162 274v50q0 257 -137 442h64q147 -175 147 -447v-40q0 -274 -147 -449h-64q137 188 137 444z" />
    <glyph glyph-name="Korea1.273" horiz-adv-x="910" 
d="M429 491l-128 -83l-31 57l142 69l-142 68l31 57l127 -83l-6 153h66l-7 -153l128 83l30 -57l-142 -68l142 -69l-30 -57l-128 83l7 -152h-66z" />
    <glyph glyph-name="Korea1.274" horiz-adv-x="910" 
d="M422 568h66v-217h213v-64h-213v-231h-66v231h-213v64h213v217z" />
    <glyph glyph-name="Korea1.275" horiz-adv-x="910" 
d="M390 -175l42 225h88l-72 -225h-58z" />
    <glyph glyph-name="Korea1.276" horiz-adv-x="910" 
d="M334 254v73h242v-73h-242z" />
    <glyph glyph-name="Korea1.277" horiz-adv-x="910" 
d="M404 -55v100h101v-100h-101z" />
    <glyph glyph-name="Korea1.278" horiz-adv-x="910" 
d="M571 759h68l-302 -884h-67z" />
    <glyph glyph-name="Korea1.279" horiz-adv-x="910" 
d="M700 391v-112q0 -157 -59.5 -236.5t-186.5 -79.5q-244 0 -244 316v112q0 315 244 315q246 0 246 -315zM628 278v114q0 131 -43 191t-131 60q-172 0 -172 -251v-114q0 -131 43.5 -191.5t128.5 -60.5q88 0 131 60t43 192z" />
    <glyph glyph-name="Korea1.280" horiz-adv-x="910" 
d="M593 -26h-70v633l-174 -106l-32 56l223 138h53v-721z" />
    <glyph glyph-name="Korea1.281" horiz-adv-x="910" 
d="M226 34l269 315q56 65 74 101t18 67v8q0 54 -36 85.5t-101 31.5q-106 0 -167 -109l-56 35q76 138 221 138q96 0 153 -49.5t57 -130.5v-10q0 -28 -8.5 -54.5t-30 -57.5t-35 -48t-46.5 -55l-224 -263h370v-64h-458v60z" />
    <glyph glyph-name="Korea1.282" horiz-adv-x="910" 
d="M295 558l-55 36q70 112 208 112q98 0 155.5 -49.5t57.5 -130.5v-10q0 -50 -29 -94.5t-95 -67.5q73 -12 112.5 -57.5t39.5 -110.5v-15q0 -87 -59.5 -147.5t-182.5 -60.5q-130 0 -231 80l35 56q99 -72 196 -72q87 0 130 42.5t43 100.5v13q0 73 -51 105t-116 32h-81v60h84
q63 0 98.5 42.5t35.5 94.5v8q0 54 -38 85.5t-103 31.5q-101 0 -154 -84z" />
    <glyph glyph-name="Korea1.283" horiz-adv-x="910" 
d="M544 425h70v-227h106v-64h-106v-160h-70v160h-361v64l350 497h80l-349 -497h280v227z" />
    <glyph glyph-name="Korea1.284" horiz-adv-x="910" 
d="M631 178v13q0 166 -163 166q-83 0 -142 -57h-66l23 395h371v-64h-309l-11 -262q24 23 65.5 37t85.5 14q103 0 159 -63t56 -163v-15q0 -41 -13.5 -77.5t-40.5 -68.5t-76 -51t-114 -19q-130 0 -234 80l36 57q95 -73 198 -73q88 0 131.5 46.5t43.5 104.5z" />
    <glyph glyph-name="Korea1.285" horiz-adv-x="910" 
d="M665 657l-33 -57q-74 43 -153 43q-97 0 -141.5 -76.5t-53.5 -227.5q20 39 66.5 70t115.5 31q96 0 162.5 -60.5t66.5 -162.5v-24q0 -105 -66.5 -167.5t-169.5 -62.5q-108 0 -176 74.5t-68 218.5v24q0 224 68 325t197 101q97 0 185 -49zM291 220v-13q0 -81 46 -131t120 -50
q75 0 122 45.5t47 124.5v15q0 78 -49 123t-119 45q-65 0 -116 -46t-51 -113z" />
    <glyph glyph-name="Korea1.286" horiz-adv-x="910" 
d="M696 641l-292 -667h-79l293 657h-405v64h483v-54z" />
    <glyph glyph-name="Korea1.287" horiz-adv-x="910" 
d="M314 523v-12q0 -60 39 -100.5t102 -40.5t102 40.5t39 100.5v12q0 55 -38.5 88t-102.5 33q-65 0 -103 -33t-38 -88zM294 171v-12q0 -57 44 -95t117 -38q74 0 117.5 38t43.5 95v12q0 64 -45 103t-116 39t-116 -39t-45 -103zM223 157v17q0 59 36.5 105t95.5 64
q-109 51 -109 167v16q0 77 59 128.5t150 51.5t150 -51.5t59 -128.5v-16q0 -56 -28.5 -99.5t-81.5 -67.5q59 -17 96 -63.5t37 -105.5v-17q0 -86 -64 -140t-168 -54t-168 54t-64 140z" />
    <glyph glyph-name="Korea1.288" horiz-adv-x="910" 
d="M247 12l29 59q76 -44 155 -44q105 0 147.5 75t47.5 226q-19 -39 -66.5 -71.5t-115.5 -32.5q-96 0 -162.5 61.5t-66.5 163.5v24q0 105 67 169t169 64q107 0 175.5 -75t68.5 -219v-30q0 -232 -63.5 -325.5t-202.5 -93.5q-97 0 -182 49zM619 446v13q0 81 -46.5 132.5
t-119.5 51.5q-75 0 -122 -46.5t-47 -126.5v-15q0 -78 49.5 -124t118.5 -46q65 0 116 47t51 114z" />
    <glyph glyph-name="Korea1.289" horiz-adv-x="910" 
d="M404 -55v100h101v-100h-101zM404 383v100h101v-100h-101z" />
    <glyph glyph-name="Korea1.290" horiz-adv-x="910" 
d="M415 383v100h101v-100h-101zM390 -175l42 225h88l-72 -225h-58z" />
    <glyph glyph-name="Korea1.291" horiz-adv-x="910" 
d="M300 323v-6l390 -203v-73l-470 250v59l470 250v-72z" />
    <glyph glyph-name="Korea1.292" horiz-adv-x="910" 
d="M229 393v65h452v-65h-452zM229 182v65h452v-65h-452z" />
    <glyph glyph-name="Korea1.293" horiz-adv-x="910" 
d="M610 317v6l-390 205v72l470 -250v-59l-470 -250v73z" />
    <glyph glyph-name="Korea1.294" horiz-adv-x="910" 
d="M387 -54v98h96v-98h-96zM469 141h-68v47q0 48 19.5 80.5t77.5 89.5q4 4 19.5 18.5t20.5 20l16.5 18t16 21t10.5 21t8.5 25.5t2.5 27v16q0 54 -37 85.5t-99 31.5q-100 0 -166 -76l-45 46q32 39 85.5 66.5t123.5 27.5q98 0 154 -48.5t56 -131.5v-17q0 -24 -6 -46
t-12.5 -36.5t-23.5 -35t-25 -28.5t-32 -30t-30 -28q-37 -35 -51.5 -59.5t-14.5 -60.5v-44z" />
    <glyph glyph-name="Korea1.295" horiz-adv-x="910" 
d="M716 45q-43 0 -80 22t-51 64h-1q-17 -43 -61 -63.5t-87 -20.5q-91 0 -137.5 51t-46.5 144v76q0 92 48 143.5t135 51.5q94 0 133 -64v58h71v-321q0 -40 21.5 -59.5t56.5 -19.5q113 0 113 190v11q0 173 -98.5 270t-287.5 97q-166 0 -265.5 -101.5t-99.5 -277.5v-17
q0 -186 100.5 -289.5t284.5 -103.5q162 0 285 65l28 -57q-131 -71 -310 -71q-210 0 -332 122t-122 333v19q0 194 117 317t314 123q215 0 333.5 -116.5t118.5 -309.5v-13q0 -36 -5 -69.5t-17.5 -67.5t-32.5 -59t-52 -41t-73 -16zM325 306v-52q0 -139 118 -139q56 0 89.5 31.5
t33.5 90.5v100q0 43 -34 76t-89 33q-118 0 -118 -140z" />
    <glyph glyph-name="Korea1.296" horiz-adv-x="910" 
d="M495 695l267 -721h-75l-80 224h-305l-82 -224h-72l268 721h79zM396 454l-72 -195h261l-70 195q-30 81 -60 179q-24 -84 -59 -179z" />
    <glyph glyph-name="Korea1.297" horiz-adv-x="910" 
d="M219 -26v721h230q229 0 229 -176v-21q0 -52 -27.5 -90.5t-88.5 -53.5q69 -10 109 -51.5t40 -113.5v-25q0 -90 -58 -140t-173 -50h-261zM288 321v-285h186q166 0 166 129v22q0 69 -42 101.5t-146 32.5h-164zM444 634h-156v-254h163q79 0 118 27.5t39 92.5v18
q0 63 -39 89.5t-125 26.5z" />
    <glyph glyph-name="Korea1.298" horiz-adv-x="910" 
d="M474 706q134 0 228 -72l-36 -55q-86 61 -192 61q-98 0 -152 -69t-54 -185v-92q0 -131 55.5 -197.5t157.5 -66.5q113 0 198 74l41 -55q-95 -86 -240 -86q-139 0 -211 86t-72 245v89q0 153 73 238t204 85z" />
    <glyph glyph-name="Korea1.299" horiz-adv-x="910" 
d="M216 695h225q138 0 215 -80.5t77 -228.5v-103q0 -148 -77 -228.5t-215 -80.5h-225v721zM286 633v-597h156q101 0 161 63.5t60 188.5v93q0 125 -60 188.5t-161 63.5h-156z" />
    <glyph glyph-name="Korea1.300" horiz-adv-x="910" 
d="M244 695h434v-62h-364v-258h343v-62h-343v-277h371v-62h-441v721z" />
    <glyph glyph-name="Korea1.301" horiz-adv-x="910" 
d="M331 -26h-70v721h428v-62h-358v-276h337v-62h-337v-321z" />
    <glyph glyph-name="Korea1.302" horiz-adv-x="910" 
d="M471 706q139 0 233 -72l-36 -55q-86 61 -197 61q-102 0 -155.5 -68.5t-53.5 -185.5v-92q0 -264 223 -264q109 0 169 36v228h-170v62h238v-329q-88 -64 -240 -64q-146 0 -218.5 85.5t-72.5 245.5v89q0 154 72.5 238.5t207.5 84.5z" />
    <glyph glyph-name="Korea1.303" horiz-adv-x="910" 
d="M613 -26v341h-371v-341h-70v721h70v-310h371v310h70v-721h-70z" />
    <glyph glyph-name="Korea1.304" horiz-adv-x="910" 
d="M420 -26v721h70v-721h-70z" />
    <glyph glyph-name="Korea1.305" horiz-adv-x="910" 
d="M536 172v523h70v-530q0 -202 -184 -202q-106 0 -169 55l34 57q57 -46 131 -46q63 0 90.5 34t27.5 109z" />
    <glyph glyph-name="Korea1.306" horiz-adv-x="910" 
d="M716 695l-300 -308l319 -413h-90l-279 362l-92 -95v-267h-70v721h70v-364l348 364h94z" />
    <glyph glyph-name="Korea1.307" horiz-adv-x="910" 
d="M255 695h70v-659h361v-62h-431v721z" />
    <glyph glyph-name="Korea1.308" horiz-adv-x="910" 
d="M422 94l-191 408q-26 52 -36 91v-619h-69v721h86l244 -528l245 528h83v-721h-69v619q-8 -40 -34 -91l-193 -408h-66z" />
    <glyph glyph-name="Korea1.309" horiz-adv-x="910" 
d="M197 -26v721h83l331 -564q12 -21 34 -67v631h67v-721h-83l-332 566q-20 35 -33 65v-631h-67z" />
    <glyph glyph-name="Korea1.310" horiz-adv-x="910" 
d="M455 706q132 0 206.5 -86.5t74.5 -235.5v-99q0 -149 -74.5 -235.5t-206.5 -86.5t-206.5 86.5t-74.5 235.5v99q0 149 74 235.5t207 86.5zM455 26q98 0 154 69t56 196v87q0 127 -56 196t-154 69t-154 -69t-56 -196v-87q0 -127 56 -196t154 -69z" />
    <glyph glyph-name="Korea1.311" horiz-adv-x="910" 
d="M239 -26v721h244q111 0 171 -57t60 -149v-21q0 -91 -62 -150t-169 -59h-174v-285h-70zM477 632h-168v-310h157q90 0 133.5 39t43.5 109v18q0 66 -42 105t-124 39z" />
    <glyph glyph-name="Korea1.312" horiz-adv-x="910" 
d="M447 706q132 0 206.5 -86.5t74.5 -235.5v-99q0 -146 -69 -230l84 -84l-45 -47l-87 87q-68 -48 -164 -48q-132 0 -206.5 86.5t-74.5 235.5v99q0 149 74 235.5t207 86.5zM447 26q67 0 115 33l-93 94l45 47l95 -95q49 70 49 186v87q0 127 -56.5 196t-154.5 69t-154.5 -69
t-56.5 -196v-87q0 -127 56.5 -196t154.5 -69z" />
    <glyph glyph-name="Korea1.313" horiz-adv-x="910" 
d="M639 -26l-139 312q-9 -1 -27 -1h-180v-311h-70v721h249q106 0 166.5 -54.5t60.5 -141.5v-15q0 -65 -34.5 -113t-95.5 -70l145 -327h-75zM462 632h-169v-284h158q177 0 177 139v10q0 64 -42 99.5t-124 35.5z" />
    <glyph glyph-name="Korea1.314" horiz-adv-x="910" 
d="M454 28q82 0 131 36.5t49 87.5v21q0 53 -38.5 83t-150.5 55q-122 27 -171 72.5t-49 116.5v23q0 81 66.5 132t169.5 51q129 0 214 -61l-33 -57q-75 54 -181 54q-69 0 -117 -32.5t-48 -86.5v-20q0 -48 37.5 -77t133.5 -51q136 -31 187 -75.5t51 -124.5v-23
q0 -80 -67.5 -134.5t-180.5 -54.5q-141 0 -245 80l36 59q101 -74 206 -74z" />
    <glyph glyph-name="Korea1.315" horiz-adv-x="910" 
d="M189 695h531v-62h-231v-659h-70v659h-230v62z" />
    <glyph glyph-name="Korea1.316" horiz-adv-x="910" 
d="M455 26q95 0 141 61t46 194v414h69v-440q0 -147 -66.5 -219.5t-189.5 -72.5q-124 0 -190 72.5t-66 219.5v440h69v-414q0 -133 46 -194t141 -61z" />
    <glyph glyph-name="Korea1.317" horiz-adv-x="910" 
d="M414 -26l-257 721h77l222 -649h1l222 649h73l-258 -721h-80z" />
    <glyph glyph-name="Korea1.318" horiz-adv-x="910" 
d="M203 -26l-197 721h75l162 -646h1l172 646h79l172 -646h1l163 646h73l-199 -721h-80l-171 640l-171 -640h-80z" />
    <glyph glyph-name="Korea1.319" horiz-adv-x="910" 
d="M726 695l-227 -347l242 -374h-86l-201 327l-206 -327h-80l243 375l-231 346h82l196 -302l189 302h79z" />
    <glyph glyph-name="Korea1.320" horiz-adv-x="910" 
d="M736 695l-244 -426v-295h-70v295l-248 426h79l205 -362l200 362h78z" />
    <glyph glyph-name="Korea1.321" horiz-adv-x="910" 
d="M702 695v-47l-430 -614h449v-60h-533v55l425 606h-401v60h490z" />
    <glyph glyph-name="Korea1.322" horiz-adv-x="910" 
d="M872 -108v-62h-235v936h235v-62h-168v-812h168z" />
    <glyph glyph-name="Korea1.323" horiz-adv-x="910" 
d="M22 353v51h98l-70 291h67l64 -291h169l70 291h72l70 -291h170l66 291h64l-71 -291h98v-51h-111l-92 -379h-76l-91 379h-128l-91 -379h-76l-92 379h-110zM575 353l74 -304h3l68 304h-145zM193 353l68 -304h3l73 304h-144zM455 620l-52 -216h104z" />
    <glyph glyph-name="Korea1.324" horiz-adv-x="910" 
d="M38 -170v62h168v812h-168v62h235v-936h-235z" />
    <glyph glyph-name="Korea1.325" horiz-adv-x="910" 
d="M667 401h-70l-142 262l-142 -262h-70l180 323h65z" />
    <glyph glyph-name="Korea1.326" horiz-adv-x="910" 
d="M695 -75v-55h-480v55h480z" />
    <glyph glyph-name="Korea1.327" horiz-adv-x="910" 
d="M539 568h-64l-124 141h83z" />
    <glyph glyph-name="Korea1.328" horiz-adv-x="910" 
d="M423 -34q-77 0 -125 41.5t-48 112.5v22q0 67 49.5 107.5t140.5 40.5h152v50q0 59 -32.5 90.5t-95.5 31.5q-80 0 -159 -55l-33 52q91 64 193 64q91 0 142.5 -45.5t51.5 -126.5v-377h-66v66h-1q-18 -30 -60 -51q-46 -23 -109 -23zM592 142v91h-151q-62 0 -92.5 -25.5
t-30.5 -68.5v-16q0 -49 34 -73.5t81 -24.5q58 0 108 31q51 32 51 86z" />
    <glyph glyph-name="Korea1.329" horiz-adv-x="910" 
d="M321 38h-1v-64h-67v756h68v-293q24 40 67 63t94 23q98 0 156 -61t58 -170v-95q0 -108 -59.5 -169.5t-154.5 -61.5q-106 0 -161 72zM628 207v75q0 85 -40 132t-110 47q-60 0 -108.5 -41.5t-48.5 -108.5v-158q0 -49 45 -88t112 -39q69 0 109.5 48t40.5 133z" />
    <glyph glyph-name="Korea1.330" horiz-adv-x="910" 
d="M480 523q107 0 177 -53l-31 -53q-64 45 -146 45q-71 0 -112.5 -48t-41.5 -132v-69q0 -88 41.5 -136.5t114.5 -48.5q87 0 158 53l32 -54q-79 -61 -191 -61q-105 0 -164.5 65t-59.5 182v67q0 115 61 179t162 64z" />
    <glyph glyph-name="Korea1.331" horiz-adv-x="910" 
d="M590 -26v71h-1q-21 -38 -65.5 -58.5t-94.5 -20.5q-95 0 -155 61.5t-60 169.5v95q0 108 59.5 169.5t154.5 61.5q108 0 161 -76v283h68v-756h-67zM282 282v-75q0 -85 41 -133t109 -48q69 0 113 36.5t44 104.5v162q0 50 -45.5 92t-111.5 42q-69 0 -109.5 -48t-40.5 -133z
" />
    <glyph glyph-name="Korea1.332" horiz-adv-x="910" 
d="M305 279h300v9q0 84 -39 129.5t-110 45.5t-111 -47.5t-40 -127.5v-9zM631 79l30 -52q-87 -61 -196 -61q-108 0 -168 65t-60 182v67q0 114 58.5 178.5t160.5 64.5q104 0 160.5 -65t56.5 -180v-56h-368v-9q0 -89 43 -138t118 -49q91 0 165 53z" />
    <glyph glyph-name="Korea1.333" horiz-adv-x="910" 
d="M386 -26v481h-92v58h92v68q0 85 34.5 120t104.5 35q57 0 91 -13l-10 -56q-36 10 -76 10q-41 0 -58.5 -22.5t-17.5 -76.5v-65h149v-58h-149v-481h-68z" />
    <glyph glyph-name="Korea1.334" horiz-adv-x="910" 
d="M589 -19v74h-1q-21 -39 -65 -59t-94 -20q-95 0 -155 61.5t-60 169.5v85q0 108 59.5 169.5t154.5 61.5q56 0 97.5 -21.5t64.5 -54.5v66h67v-530q0 -113 -58.5 -172.5t-161.5 -59.5q-108 0 -180 56l31 53q37 -26 69.5 -35.5t79.5 -9.5q152 0 152 166zM282 282v-65
q0 -85 41 -133t109 -48q69 0 113 36.5t44 104.5v152q0 50 -45.5 92t-111.5 42q-69 0 -109.5 -48t-40.5 -133z" />
    <glyph glyph-name="Korea1.335" horiz-adv-x="910" 
d="M474 523q91 0 142.5 -50.5t51.5 -135.5v-363h-68v346q0 141 -136 141q-65 0 -109.5 -43.5t-44.5 -93.5v-350h-68v756h68v-292q22 35 63.5 60t100.5 25z" />
    <glyph glyph-name="Korea1.336" horiz-adv-x="910" 
d="M421 -26v539h68v-539h-68zM418 616v76h74v-76h-74z" />
    <glyph glyph-name="Korea1.337" horiz-adv-x="910" 
d="M497 616v76h74v-76h-74zM568 513v-605q0 -85 -34.5 -121t-104.5 -36q-57 0 -91 13l10 56q36 -10 76 -10q41 0 58.5 23t17.5 78v602h68z" />
    <glyph glyph-name="Korea1.338" horiz-adv-x="910" 
d="M655 513l-216 -207l235 -332h-83l-200 287l-87 -84v-203h-68v756h68v-472l260 255h91z" />
    <glyph glyph-name="Korea1.339" horiz-adv-x="910" 
d="M421 -26v756h68v-756h-68z" />
    <glyph glyph-name="Korea1.340" horiz-adv-x="910" 
d="M639 523q89 0 133 -49t44 -137v-363h-68v345q0 71 -26 106.5t-95 35.5q-61 0 -98.5 -41t-39.5 -92v-354h-68v345q0 71 -26 106.5t-95 35.5q-63 0 -100.5 -42.5t-37.5 -94.5v-350h-68v539h67v-75q47 85 151 85q125 0 163 -98q21 40 63 69t101 29z" />
    <glyph glyph-name="Korea1.341" horiz-adv-x="910" 
d="M474 523q91 0 142.5 -50.5t51.5 -135.5v-363h-68v346q0 141 -136 141q-65 0 -109.5 -43.5t-44.5 -93.5v-350h-68v539h67v-75q22 35 64 60t101 25z" />
    <glyph glyph-name="Korea1.342" horiz-adv-x="910" 
d="M455 523q108 0 168.5 -64.5t60.5 -180.5v-67q0 -116 -60.5 -180.5t-168.5 -64.5t-168.5 64.5t-60.5 180.5v67q0 117 60.5 181t168.5 64zM455 26q76 0 118 48t42 141v59q0 93 -42 141t-118 48t-118 -48t-42 -141v-59q0 -93 42 -141t118 -48z" />
    <glyph glyph-name="Korea1.343" horiz-adv-x="910" 
d="M322 38h-1v-278h-68v753h67v-76q24 40 67.5 63t94.5 23q98 0 156 -61t58 -170v-95q0 -108 -59.5 -169.5t-154.5 -61.5q-105 0 -160 72zM628 207v75q0 85 -40 132t-110 47q-60 0 -108.5 -41.5t-48.5 -108.5v-158q0 -49 45 -88t112 -39q69 0 109.5 48t40.5 133z" />
    <glyph glyph-name="Korea1.344" horiz-adv-x="910" 
d="M589 -240v285h-1q-21 -39 -65 -59t-94 -20q-95 0 -155 61.5t-60 169.5v95q0 108 59.5 169.5t154.5 61.5q56 0 97.5 -21.5t64.5 -54.5v66h67v-753h-68zM282 282v-75q0 -85 41 -133t109 -48q69 0 113 36.5t44 104.5v162q0 50 -45.5 92t-111.5 42q-69 0 -109.5 -48
t-40.5 -133z" />
    <glyph glyph-name="Korea1.345" horiz-adv-x="910" 
d="M604 512l-21 -69q-28 11 -65 11q-66 0 -105.5 -48.5t-39.5 -125.5v-306h-68v539h67v-95q20 44 59 74.5t96 30.5q47 0 77 -11z" />
    <glyph glyph-name="Korea1.346" horiz-adv-x="910" 
d="M455 27q63 0 98.5 25.5t35.5 61.5v10q0 40 -33 61.5t-112 36.5q-89 17 -134 49.5t-45 94.5v14q0 61 50.5 102t144.5 41q110 0 185 -56l-31 -51q-70 47 -156 47q-59 0 -92 -23.5t-33 -60.5v-11q0 -62 135 -87q101 -19 145 -54.5t44 -99.5v-15q0 -64 -56 -105t-142 -41
q-120 0 -207 63l33 54q83 -56 170 -56z" />
    <glyph glyph-name="Korea1.347" horiz-adv-x="910" 
d="M386 124v331h-92v58h92v139h68v-139h149v-58h-149v-328q0 -54 17.5 -76.5t58.5 -22.5q40 0 76 10l10 -56q-34 -13 -91 -13q-73 0 -106 35t-33 120z" />
    <glyph glyph-name="Korea1.348" horiz-adv-x="910" 
d="M432 -34q-90 0 -139 50t-49 136v361h68v-344q0 -66 28 -103.5t102 -37.5q65 0 110 42.5t45 92.5v350h68v-539h-67v75q-21 -35 -64 -59t-102 -24z" />
    <glyph glyph-name="Korea1.349" horiz-adv-x="910" 
d="M494 -26h-76l-197 539h73l163 -469l160 469h71z" />
    <glyph glyph-name="Korea1.350" horiz-adv-x="910" 
d="M324 -26h-79l-147 539h69l119 -471l132 471h77l135 -471l116 471h66l-144 -539h-79l-134 463z" />
    <glyph glyph-name="Korea1.351" horiz-adv-x="910" 
d="M678 513l-181 -260l190 -279h-79l-153 237l-158 -237h-75l192 279l-181 260h76l148 -220l147 220h74z" />
    <glyph glyph-name="Korea1.352" horiz-adv-x="910" 
d="M219 513h70l167 -463l164 463h70l-280 -762l-58 21l69 193z" />
    <glyph glyph-name="Korea1.353" horiz-adv-x="910" 
d="M652 513v-46l-329 -437h343v-56h-423v52l325 431h-305v56h389z" />
    <glyph glyph-name="Korea1.354" horiz-adv-x="910" 
d="M529 278v65q55 1 80.5 20.5t25.5 62.5v201q0 74 34 106.5t110 32.5h93v-61h-84q-46 0 -66 -16t-20 -64v-192q0 -105 -78 -123q78 -17 78 -123v-222q0 -47 19.5 -60.5t66.5 -13.5h84v-61h-93q-77 0 -110.5 30.5t-33.5 102.5v230q0 43 -25.5 63.5t-80.5 21.5z" />
    <glyph glyph-name="Korea1.355" horiz-adv-x="910" 
d="M485 765v-935h-61v935h61z" />
    <glyph glyph-name="Korea1.356" horiz-adv-x="910" 
d="M381 343v-65q-55 -1 -80.5 -21.5t-25.5 -63.5v-230q0 -72 -33.5 -102.5t-110.5 -30.5h-93v61h84q47 0 66.5 13.5t19.5 60.5v222q0 106 78 123q-78 18 -78 123v192q0 48 -20 64t-66 16h-84v61h93q76 0 110 -32.5t34 -106.5v-201q0 -43 25.5 -62.5t80.5 -20.5z" />
    <glyph glyph-name="Korea1.357" horiz-adv-x="910" 
d="M905 762v-39h-900v39h900z" />
    <glyph glyph-name="Korea1.358" horiz-adv-x="910" 
d="M728 60h-72v415h-503v65h575v-480z" />
    <glyph glyph-name="Korea1.359" horiz-adv-x="910" 
d="M420 60h-72v415h-234v65h306v-480zM773 60h-72v415h-234v65h306v-480z" />
    <glyph glyph-name="Korea1.360" horiz-adv-x="910" 
d="M411 60h-72v411h-204v65h276v-476zM657 258h-1q-3 -22 -38 -68q-45 -60 -119 -141l-47 47q82 88 120 142q31 45 39 69t8 75v162h74v-162q0 -52 7.5 -76t38.5 -68q38 -54 120 -142l-46 -47q-68 75 -118 141q-35 46 -38 68z" />
    <glyph glyph-name="Korea1.361" horiz-adv-x="910" 
d="M182 550h72v-425h512v-65h-584v490z" />
    <glyph glyph-name="Korea1.362" horiz-adv-x="910" 
d="M614 262h-1q-4 -27 -32 -72q-34 -54 -111 -144l-48 41q78 91 110 145q28 46 35.5 71.5t7.5 75.5v103h-132v61h336v-61h-131v-103q0 -49 8 -74.5t36 -72.5q35 -58 110 -145l-47 -41q-72 85 -109 144q-28 45 -32 72zM229 540v-425h32q77 0 147 10l6 -64q-76 -11 -164 -11
h-93v490h72z" />
    <glyph glyph-name="Korea1.363" horiz-adv-x="910" 
d="M748 221v-34q0 -62 -41 -106t-115 -44t-115 44t-41 106v34q0 62 41 106t115 44t115 -44t41 -106zM221 540v-425h47q77 0 147 10l6 -64q-76 -11 -164 -11h-108v490h72zM682 191v26q0 41 -23.5 66.5t-66.5 25.5t-66.5 -25.5t-23.5 -66.5v-26q0 -41 23.5 -66.5t66.5 -25.5
t66.5 25.5t23.5 66.5zM627 566v-92h154v-60h-378v60h154v92h70z" />
    <glyph glyph-name="Korea1.364" horiz-adv-x="910" 
d="M747 58h-575v484h570v-65h-498v-354h503v-65z" />
    <glyph glyph-name="Korea1.365" horiz-adv-x="910" 
d="M436 58h-278v484h275v-65h-203v-354h206v-65zM777 58h-290v484h287v-65h-215v-354h218v-65z" />
    <glyph glyph-name="Korea1.366" horiz-adv-x="910" 
d="M768 47h-593v288h506v154h-506v64h578v-282h-506v-160h521v-64z" />
    <glyph glyph-name="Korea1.367" horiz-adv-x="910" 
d="M448 59h-303v273h221v147h-221v64h292v-273h-221v-147h232v-64zM784 59h-72v419h-226v65h298v-484z" />
    <glyph glyph-name="Korea1.368" horiz-adv-x="910" 
d="M427 58h-292v274h213v147h-213v64h284v-273h-213v-148h221v-64zM783 58h-305v485h305v-485zM711 123v355h-161v-355h161z" />
    <glyph glyph-name="Korea1.369" horiz-adv-x="910" 
d="M427 58h-292v274h213v147h-213v64h284v-273h-213v-148h221v-64zM784 58h-305v485h72v-175h161v175h72v-485zM712 123v181h-161v-181h161z" />
    <glyph glyph-name="Korea1.370" horiz-adv-x="910" 
d="M425 58h-288v274h213v147h-213v64h284v-273h-213v-148h217v-64zM640 259h-1q-3 -24 -38 -70q-45 -61 -117 -140l-47 47q70 76 118 143q32 45 39.5 68.5t7.5 74.5v162h74v-162q0 -52 7.5 -75t38.5 -68q48 -67 118 -143l-46 -47q-66 73 -116 140q-35 46 -38 70z" />
    <glyph glyph-name="Korea1.371" horiz-adv-x="910" 
d="M777 58h-305v485h300v-65h-228v-146h219v-63h-219v-146h233v-65zM424 58h-292v274h213v147h-213v64h284v-273h-213v-148h221v-64z" />
    <glyph glyph-name="Korea1.372" horiz-adv-x="910" 
d="M775 543v-61h-59v-360h63v-64h-333v64h62v360h-58v61h325zM412 58h-282v274h203v147h-203v64h274v-273h-203v-148h211v-64zM574 122h76v360h-76v-360z" />
    <glyph glyph-name="Korea1.373" horiz-adv-x="910" 
d="M763 221v-34q0 -62 -41 -106t-115 -44t-115 44t-41 106v34q0 62 41 106t115 44t115 -44t41 -106zM414 58h-288v274h201v147h-201v64h272v-273h-201v-148h217v-64zM697 191v26q0 41 -23.5 66.5t-66.5 25.5t-66.5 -25.5t-23.5 -66.5v-26q0 -41 23.5 -66.5t66.5 -25.5
t66.5 25.5t23.5 66.5zM642 566v-92h149v-60h-364v60h145v92h70z" />
    <glyph glyph-name="Korea1.374" horiz-adv-x="910" 
d="M743 58h-576v486h576v-486zM671 123v356h-432v-356h432z" />
    <glyph glyph-name="Korea1.375" horiz-adv-x="910" 
d="M743 57h-576v496h72v-186h432v186h72v-496zM671 122v181h-432v-181h432z" />
    <glyph glyph-name="Korea1.376" horiz-adv-x="910" 
d="M422 58h-284v494h68v-189h148v189h68v-494zM354 122v178h-148v-178h148zM772 58h-284v494h68v-189h148v189h68v-494zM704 122v178h-148v-178h148z" />
    <glyph glyph-name="Korea1.377" horiz-adv-x="910" 
d="M640 258h-1q-3 -22 -38 -68q-45 -60 -119 -141l-47 47q82 88 120 142q31 45 39 69t8 75v170h74v-170q0 -52 7.5 -76t38.5 -68q38 -54 120 -142l-46 -47q-68 75 -118 141q-35 46 -38 68zM424 58h-293v494h70v-189h153v189h70v-494zM354 122v178h-153v-178h153z" />
    <glyph glyph-name="Korea1.378" horiz-adv-x="910" 
d="M491 560v-117q0 -77 19 -114t98 -98q60 -46 177 -118l-40 -57q-135 89 -199 139q-70 54 -91 92h-1q-21 -38 -91 -93q-64 -50 -199 -139l-40 58q117 72 177 118q79 61 98 98t19 114v117h73z" />
    <glyph glyph-name="Korea1.379" horiz-adv-x="910" 
d="M250 562h69v-150q0 -86 21 -125.5t115 -137.5q94 98 115 137.5t21 125.5v150h69v-150q0 -87 33 -139.5t159 -168.5l-43 -45q-154 135 -184 201h-1q-15 -43 -169 -196q-154 153 -169 196h-1q-30 -66 -184 -201l-43 45q126 116 159 168.5t33 139.5v150z" />
    <glyph glyph-name="Korea1.380" horiz-adv-x="910" 
d="M170 281v49q0 97 81.5 162t203.5 65q121 0 203 -65t82 -162v-49q0 -97 -82 -162t-203 -65q-122 0 -203.5 65t-81.5 162zM455 493q-96 0 -156.5 -48t-60.5 -118v-43q0 -70 60.5 -118t156.5 -48t156.5 48t60.5 118v43q0 70 -60.5 118t-156.5 48z" />
    <glyph glyph-name="Korea1.381" horiz-adv-x="910" 
d="M160 490v61h590v-61h-259v-50q0 -77 19 -114t98 -98q60 -46 177 -118l-40 -57q-135 89 -199 139q-70 54 -91 92h-1q-21 -38 -91 -93q-64 -50 -199 -139l-40 58q117 72 177 118q79 61 98 98t19 114v50h-258z" />
    <glyph glyph-name="Korea1.382" horiz-adv-x="910" 
d="M125 490v61h660v-61h-135v-78q0 -60 9.5 -92t46.5 -78t126 -128l-43 -45q-147 131 -174 191h-1q-15 -42 -159 -186q-144 144 -159 186h-1q-28 -62 -174 -191l-43 45q89 82 126 128t46.5 78t9.5 92v78h-135zM329 412q0 -81 18 -118t108 -135q90 98 108 135t18 118v78h-252
v-78z" />
    <glyph glyph-name="Korea1.383" horiz-adv-x="910" 
d="M491 625v-124h270v-62h-270q0 -77 19 -114t98 -97q59 -45 174 -116l-40 -57q-132 87 -196 137q-70 54 -91 92h-1q-21 -38 -91 -93q-64 -50 -196 -137l-40 58q115 71 174 116q79 61 98 98t19 113h-269v62h269v124h73z" />
    <glyph glyph-name="Korea1.384" horiz-adv-x="910" 
d="M150 318l516 7v162h-503v65h577v-501h-74v214l-514 -10z" />
    <glyph glyph-name="Korea1.385" horiz-adv-x="910" 
d="M761 121v-65h-588v488h580v-65h-507v-146h496v-65h-496v-147h515z" />
    <glyph glyph-name="Korea1.386" horiz-adv-x="910" 
d="M141 540h628v-61h-133v-361h142v-61h-646v61h142v361h-133v61zM344 479v-361h222v361h-222z" />
    <glyph glyph-name="Korea1.387" horiz-adv-x="910" 
d="M455 17q-115 0 -185 44.5t-70 120.5v34q0 76 70.5 120.5t184.5 44.5t184.5 -44.5t70.5 -120.5v-34q0 -76 -70 -120.5t-185 -44.5zM455 319q-88 0 -137 -29t-49 -79v-24q0 -50 49 -79t137 -29t137 29t49 79v24q0 50 -49 79t-137 29zM491 625v-125h273v-61h-618v61h273v125
h72z" />
    <glyph glyph-name="Korea1.388" horiz-adv-x="910" 
d="M464 778v-379h200v-63h-200v-472h-71v914h71z" />
    <glyph glyph-name="Korea1.389" horiz-adv-x="910" 
d="M379 759v-360h152v379h70v-914h-70v472h-152v-427h-70v850h70z" />
    <glyph glyph-name="Korea1.390" horiz-adv-x="910" 
d="M464 778v-270h190v-63h-190v-164h190v-63h-190v-354h-71v914h71z" />
    <glyph glyph-name="Korea1.391" horiz-adv-x="910" 
d="M379 759v-251h152v270h70v-914h-70v354h-152v-309h-70v850h70zM379 445v-164h152v164h-152z" />
    <glyph glyph-name="Korea1.392" horiz-adv-x="910" 
d="M599 778v-914h-70v472h-202v63h202v379h70z" />
    <glyph glyph-name="Korea1.393" horiz-adv-x="910" 
d="M254 399h177v360h70v-850h-70v427h-177v63zM667 778v-914h-70v914h70z" />
    <glyph glyph-name="Korea1.394" horiz-adv-x="910" 
d="M338 508h190v270h71v-914h-71v354h-190v63h190v164h-190v63z" />
    <glyph glyph-name="Korea1.395" horiz-adv-x="910" 
d="M254 512h177v247h70v-850h-70v313h-177v63h177v164h-177v63zM667 778v-914h-70v914h70z" />
    <glyph glyph-name="Korea1.396" horiz-adv-x="910" 
d="M490 486v-350h385v-61h-840v61h385v350h70z" />
    <glyph glyph-name="Korea1.397" horiz-adv-x="910" 
d="M754 778v-358h145v-63h-145v-493h-71v914h71zM613 145l6 -61q-223 -23 -591 -23v62q175 0 244 2v278h71v-277q160 6 270 19z" />
    <glyph glyph-name="Korea1.398" horiz-adv-x="910" 
d="M657 762v-350h114v366h70v-914h-70v488h-114v-463h-70v873h70zM318 403v-261q132 4 218 9l3 -60q-166 -11 -490 -11v61h198v262h71z" />
    <glyph glyph-name="Korea1.399" horiz-adv-x="910" 
d="M805 778v-914h-71v914h71zM382 403v-277q173 6 282 19l6 -61q-223 -23 -612 -23v62q180 0 253 2v278h71z" />
    <glyph glyph-name="Korea1.400" horiz-adv-x="910" 
d="M627 486v-350h248v-61h-840v61h248v350h70v-350h204v350h70z" />
    <glyph glyph-name="Korea1.401" horiz-adv-x="910" 
d="M35 317h840v-61h-385v-355h-70v355h-385v61z" />
    <glyph glyph-name="Korea1.402" horiz-adv-x="910" 
d="M509 146h220v632h71v-914h-71v219h-220v63zM659 339l6 -61q-141 -14 -293 -19v-366h-72v364q-140 -2 -246 -2v62q408 0 605 22z" />
    <glyph glyph-name="Korea1.403" horiz-adv-x="910" 
d="M417 167h167v595h70v-873h-70v216h-167v62zM826 778v-914h-70v914h70zM522 320l3 -61q-129 -8 -214 -9v-327h-71v326q-61 -1 -206 -1v62q303 0 488 10z" />
    <glyph glyph-name="Korea1.404" horiz-adv-x="910" 
d="M800 778v-914h-71v914h71zM659 308l6 -61q-122 -12 -286 -18v-336h-72v333q-144 -2 -253 -2v62q408 0 605 22z" />
    <glyph glyph-name="Korea1.405" horiz-adv-x="910" 
d="M875 256h-248v-355h-70v355h-204v-355h-70v355h-248v61h840v-61z" />
    <glyph glyph-name="Korea1.406" horiz-adv-x="910" 
d="M35 166h840v-61h-840v61z" />
    <glyph glyph-name="Korea1.407" horiz-adv-x="910" 
d="M805 778v-914h-71v914h71zM664 179l6 -61q-223 -23 -612 -23v62q405 0 606 22z" />
    <glyph glyph-name="Korea1.408" horiz-adv-x="910" 
d="M490 778v-914h-71v914h71z" />
    <glyph glyph-name="Korea1.409" horiz-adv-x="910" 
d="M150 540h72v-415h203v-65h-275v480zM469 540h72v-415h218v-65h-290v480z" />
    <glyph glyph-name="Korea1.410" horiz-adv-x="910" 
d="M150 540h72v-415h200v-65h-272v480zM760 60h-292v481h282v-65h-210v-351h220v-65z" />
    <glyph glyph-name="Korea1.411" horiz-adv-x="910" 
d="M106 540h72v-415h208v-65h-280v480zM600 254h-1q-3 -22 -38 -68q-45 -60 -119 -141l-47 47q82 88 120 142q31 45 39 69t8 75v162h74v-162q0 -52 7.5 -76t38.5 -68q38 -54 120 -142l-46 -47q-68 75 -118 141q-35 46 -38 68z" />
    <glyph glyph-name="Korea1.412" horiz-adv-x="910" 
d="M130 540h72v-415h208v-65h-280v480zM606 581l173 -521h-345zM521 123h170l-85 270z" />
    <glyph glyph-name="Korea1.413" horiz-adv-x="910" 
d="M533 546v-434q72 89 100 149q12 26 17 45t5.5 29t0.5 45v164h72v-164v-11q0 -37 3.5 -55t19.5 -53q30 -65 113 -165l-45 -43q-69 85 -106 148q-15 24 -20 43q-5 -17 -20 -43q-37 -63 -106 -148l-34 31v-25h-71v422h-158v65h229zM308 59h-262v274h155v149h-155v64h226
v-275h-155v-148h191v-64z" />
    <glyph glyph-name="Korea1.414" horiz-adv-x="910" 
d="M441 58h-294v274h215v147h-215v64h286v-273h-215v-148h223v-64zM763 60h-280v481h270v-65h-198v-351h208v-65z" />
    <glyph glyph-name="Korea1.415" horiz-adv-x="910" 
d="M554 58h-235v494h69v-193h97v193h69v-440q52 76 89 156q13 28 13 117v159h72v-159q0 -89 13 -117q42 -91 103 -176l-47 -39q-46 65 -86 137q-13 23 -18 42q-4 -13 -18 -42q-40 -72 -86 -137l-35 28v-23zM288 59h-223v274h135v149h-135v64h206v-275h-135v-148h152v-64z
M485 121v176h-97v-176h97z" />
    <glyph glyph-name="Korea1.416" horiz-adv-x="910" 
d="M604 581l173 -521h-345zM519 123h170l-85 270zM425 60h-293v272h206v147h-206v64h277v-273h-206v-146h222v-64z" />
    <glyph glyph-name="Korea1.417" horiz-adv-x="910" 
d="M445 60h-310v272h214v147h-214v64h285v-273h-214v-146h239v-64zM775 543v-64h-314v64h314zM775 225v-34q0 -62 -41 -106t-115 -44t-115 44t-41 106v34q0 62 41 106t115 44t115 -44t41 -106zM709 195v26q0 41 -23.5 66.5t-66.5 25.5t-66.5 -25.5t-23.5 -66.5v-26
q0 -41 23.5 -66.5t66.5 -25.5t66.5 25.5t23.5 66.5z" />
    <glyph glyph-name="Korea1.418" horiz-adv-x="910" 
d="M764 58h-285v485h71v-175h143v175h71v-485zM693 123v181h-143v-181h143zM427 58h-282v485h282v-485zM356 123v355h-140v-355h140z" />
    </font>
</defs>
</svg>
